<?xml version="1.0" encoding="UTF-8"?>
<svg id="Warstwa_2" data-name="Warstwa 2" xmlns="http://www.w3.org/2000/svg" xmlns:xlink="http://www.w3.org/1999/xlink" viewBox="0 0 317.01 278.97">
  <defs>
    <style>
      .cls-1 {
        letter-spacing: -.04em;
      }

      .cls-1, .cls-2 {
        font-family: SegoeUI, 'Segoe UI';
      }

      .cls-3 {
        fill: #fff;
        font-family: Bahnschrift, Bahnschrift;
        font-size: 21px;
        font-variation-settings: 'wght' 400, 'wdth' 100;
      }

      .cls-4 {
        font-family: KozGoPr6N-Regular-90ms-RKSJ-H, 'Kozuka Gothic Pr6N';
        letter-spacing: -.25em;
      }

      .cls-5 {
        fill: #dedede;
        font-size: 15.25px;
      }

      .cls-6 {
        clip-path: url(#clippath);
      }

      .cls-7 {
        letter-spacing: -.02em;
      }

      .cls-8 {
        fill: none;
      }

      .cls-9 {
        fill: #0d1117;
      }

      .cls-10 {
        letter-spacing: 0em;
      }

      .cls-11 {
        letter-spacing: -.01em;
      }
    </style>
    <clipPath id="clippath">
      <path class="cls-8" d="m305.14,16.31v164.55H11.87V16.31c0-3.24,2.63-5.87,5.87-5.87h281.54c3.24,0,5.86,2.63,5.86,5.87Z"/>
    </clipPath>
  </defs>
  <g id="Warstwa_1-2" data-name="Warstwa 1">
    <path class="cls-9" d="m305.14,16.31v246.35c0,3.24-2.62,5.86-5.86,5.86H17.74c-3.24,0-5.87-2.62-5.87-5.86V16.31c0-3.24,2.63-5.87,5.87-5.87h281.54c3.24,0,5.86,2.63,5.86,5.87Z"/>
    <g class="cls-6">
      <image width="4000" height="2250" transform="translate(-10.87 .38) scale(.08)" xlink:href="../warianty-covid19.jpg"/>
    </g>
    <text class="cls-3" transform="translate(23.21 210.33)"><tspan x="0" y="0">Co</tspan><tspan class="cls-10" x="24.44" y="0">r</tspan><tspan x="33.19" y="0">on</tspan><tspan class="cls-11" x="56.37" y="0">a</tspan><tspan x="67.23" y="0">virus </tspan><tspan class="cls-7" x="120.18" y="0">P</tspan><tspan x="132.74" y="0">andemic</tspan></text>
    <text class="cls-5" transform="translate(23.21 237.32)"><tspan class="cls-2" x="0" y="0">SQL </tspan><tspan class="cls-4" x="27.14" y="0">・</tspan><tspan class="cls-2" x="38.58" y="0" xml:space="preserve"> Python </tspan><tspan class="cls-4" x="90.41" y="0">・</tspan><tspan class="cls-2" x="101.84" y="0"> </tspan><tspan class="cls-1" x="106.02" y="0">P</tspan><tspan class="cls-2" x="114" y="0">owerBI</tspan></text>
    <rect class="cls-8" width="317.01" height="278.97"/>
  </g>
</svg>