<svg xmlns="http://www.w3.org/2000/svg" viewBox="0 0 480 150"><defs><style>.cls-1{fill:#959da5;}.cls-2{fill:#98a0a8;}.cls-3{fill:#5ca7fe;}.cls-4{fill:#0a6ad6;}.cls-5{fill:#6c6b6b;}.cls-6{fill:#f0df5a;}.cls-7{fill:none;}</style></defs><g id="Warstwa_2" data-name="Warstwa 2"><g id="Warstwa_1-2" data-name="Warstwa 1"><path class="cls-1" d="M27.18,21v.26c-.18,0-.27.08-.27.26l-.52.27a.22.22,0,0,0-.26.26H15.63a.23.23,0,0,0-.27-.26H15.1a.23.23,0,0,0-.26-.27c0-.18-.08-.26-.26-.26,0-.2.13-.5-.27-.52V10a.23.23,0,0,0,.27-.26c.18,0,.26-.08.26-.26a.22.22,0,0,0,.26-.26c.18,0,.27-.08.26-.27h11c0,.19.08.27.26.27,0,.18.08.27.26.26a.23.23,0,0,0,.27.26.22.22,0,0,0,.26.26V20.73A.22.22,0,0,0,27.18,21ZM16,20.69h9.79c.45-.14.18-.72.57-.87V13.55A6.64,6.64,0,0,0,26,10.39c-.38-.52-.91-.43-1.41-.43-2.49,0-5,0-7.47,0a2,2,0,0,0-1.42.45c-.47.32-.35.76-.36,1.18v8.28C15.75,20,15.59,20.48,16,20.69Z"/><path class="cls-1" d="M16.94,32.54H25.6c.39,0,.22.33.26.53V43.83c-.18,0-.26.08-.26.26H23c0-.18-.08-.27-.27-.26a.22.22,0,0,0-.26-.26v-.26a.23.23,0,0,0,.26-.27c.19,0,.27-.08.27-.26h1.5V41.2H17.73a.23.23,0,0,0-.27.27.22.22,0,0,0-.26.26v.53c0,.18.08.26.26.26v.79a.22.22,0,0,0-.26.26h-.79c0-.2.13-.5-.26-.53,0-.2.13-.5-.26-.52V34.64a1.78,1.78,0,0,1,.26-1.31.22.22,0,0,0,.26-.26.23.23,0,0,0,.27-.27C16.86,32.81,16.94,32.72,16.94,32.54Zm.28,7.31h7.27V33.59h-5.7a2.32,2.32,0,0,0-1.57.37Z"/><path class="cls-2" d="M20.09,44.62l-.53.26a.22.22,0,0,0-.26.26l-.52.27h-.53V42.52c.18,0,.27-.08.26-.26H21.4c0,.18.08.26.26.26v2.89h-.52c0-.19-.08-.27-.26-.27h-.27a.22.22,0,0,0-.26-.26A.22.22,0,0,0,20.09,44.62Z"/><path class="cls-1" d="M19.57,15.33l-1.52-.73c-.17-.24,0-.55-.08-.81l.45-.45,1.88.9V12.53c.31-.37.58-.64,1.12-.36v2.1l1.85-.9a.69.69,0,0,1,.49.8c-.13.76-1.2.63-1.34,1.39.4.34,1,.35,1.29.79a1.9,1.9,0,0,1,0,.86.88.88,0,0,1-.22.1,1.7,1.7,0,0,1-1.28-.37c-.26-.18-.49-.08-.78-.21v1.69l-.4.43c-.26,0-.3-.48-.69-.13v-2.1c-.82.14-1.41.89-2.28.67-.21-.28-.06-.59-.1-.88C18.35,15.85,19.13,15.9,19.57,15.33Z"/><path class="cls-3" d="M38.77,41.05a3.22,3.22,0,0,1-.6,2.08,2.26,2.26,0,0,1-1.85.74,3.91,3.91,0,0,1-.61,0,3.31,3.31,0,0,1-.58-.15l.32-1a2.38,2.38,0,0,0,.42.11,2.6,2.6,0,0,0,.4,0,1.19,1.19,0,0,0,1-.4,2.13,2.13,0,0,0,.34-1.37V34.51h1.17Z"/><path class="cls-3" d="M42.38,40.37v3.35H41.21V34.51H43.8a3.35,3.35,0,0,1,2.32.73,2.65,2.65,0,0,1,.82,2.09A2.85,2.85,0,0,1,46,39.52a3.46,3.46,0,0,1-2.46.85Zm0-4.83v3.8h1.1a2.42,2.42,0,0,0,1.66-.51,1.83,1.83,0,0,0,.57-1.44A1.76,1.76,0,0,0,45.18,36a2.38,2.38,0,0,0-1.58-.46Z"/><path class="cls-3" d="M48.5,40.47v-.88H52v.88Z"/><path class="cls-3" d="M59.09,43.72H54.15V34.51h4.73v1H55.32v3h3.3v1h-3.3v3.12h3.77Z"/><path class="cls-3" d="M66.47,43.72H64.9L62,40.47h0v3.25H60.82V34H62v6.09h0L64.75,37h1.48l-3.06,3.25Z"/><path class="cls-3" d="M73.16,43.72H72V42.65h0a2.42,2.42,0,0,1-.87.92,2.28,2.28,0,0,1-1.22.31,2.21,2.21,0,0,1-1.8-.72A3.26,3.26,0,0,1,67.5,41V37h1.14v3.85A2.59,2.59,0,0,0,69,42.4a1.43,1.43,0,0,0,1.2.53,1.64,1.64,0,0,0,1.28-.57A2.21,2.21,0,0,0,72,40.85V37h1.15Z"/><path class="cls-3" d="M80.14,37.35l-4,5.41H80.1v1H74.53v-.37l4-5.41H74.9V37h5.24Z"/><path class="cls-3" d="M87.07,40.61H82.33a2.52,2.52,0,0,0,.6,1.72,2.05,2.05,0,0,0,1.58.6,3.25,3.25,0,0,0,.91-.14,3.5,3.5,0,0,0,.94-.45l.52.79a4.21,4.21,0,0,1-2.48.75A3.1,3.1,0,0,1,82,43a3.61,3.61,0,0,1-.86-2.54A3.85,3.85,0,0,1,82,37.81a2.86,2.86,0,0,1,2.25-1,2.58,2.58,0,0,1,2.06.86,3.55,3.55,0,0,1,.73,2.38Zm-1.15-.9a2.11,2.11,0,0,0-.45-1.44,1.48,1.48,0,0,0-1.21-.52,1.75,1.75,0,0,0-1.28.53,2.43,2.43,0,0,0-.64,1.43Z"/><path class="cls-3" d="M94.41,43.72H93.26V39.88a2.65,2.65,0,0,0-.38-1.58,1.34,1.34,0,0,0-1.15-.53,1.66,1.66,0,0,0-1.31.6,2.16,2.16,0,0,0-.52,1.5v3.85H88.76V37H89.9V38.1h0a2.68,2.68,0,0,1,.93-1,2.52,2.52,0,0,1,1.27-.32,2,2,0,0,1,1.69.72,3.16,3.16,0,0,1,.59,2.06Z"/><path class="cls-3" d="M100.68,34.51,96.33,45.1h-1l4.36-10.59Z"/><path class="cls-3" d="M106.44,42.59a2.44,2.44,0,0,1-1,1,2.65,2.65,0,0,1-1.35.33,2.5,2.5,0,0,1-2-.91,3.68,3.68,0,0,1-.76-2.46,4,4,0,0,1,.84-2.68,2.78,2.78,0,0,1,2.24-1,2.46,2.46,0,0,1,1.19.27,2,2,0,0,1,.82.82h0V34h1.15v9.74h-1.15V42.59Zm-3.92-2.14a2.8,2.8,0,0,0,.53,1.82,1.73,1.73,0,0,0,1.42.66,1.83,1.83,0,0,0,1.45-.64,2.45,2.45,0,0,0,.54-1.63v-1a1.92,1.92,0,0,0-.52-1.37,1.79,1.79,0,0,0-1.34-.56,1.82,1.82,0,0,0-1.53.72A3.11,3.11,0,0,0,102.52,40.45Z"/><path class="cls-3" d="M110.41,35.56a.77.77,0,0,1-.56-.23.74.74,0,0,1-.23-.54.75.75,0,0,1,.23-.56.84.84,0,0,1,1.13,0,.75.75,0,0,1,.23.56.74.74,0,0,1-.23.54A.78.78,0,0,1,110.41,35.56Zm.56,8.16h-1.14V37H111Z"/><path class="cls-3" d="M112.67,43.22l.54-.86a4.18,4.18,0,0,0,.84.43,2.69,2.69,0,0,0,.92.14,1.81,1.81,0,0,0,1-.24.84.84,0,0,0,.36-.74.87.87,0,0,0-.32-.69,2.31,2.31,0,0,0-1-.44,3.66,3.66,0,0,1-1.73-.81,1.72,1.72,0,0,1-.46-1.22,1.77,1.77,0,0,1,.64-1.41,2.62,2.62,0,0,1,1.76-.56,3.88,3.88,0,0,1,1,.14,3.76,3.76,0,0,1,1,.46l-.5.85a3.76,3.76,0,0,0-.81-.4,2.58,2.58,0,0,0-.73-.11,1.65,1.65,0,0,0-1,.24.77.77,0,0,0-.34.68.75.75,0,0,0,.33.67,3.92,3.92,0,0,0,1.11.43,3.52,3.52,0,0,1,1.54.76,1.75,1.75,0,0,1,.51,1.31,1.81,1.81,0,0,1-.67,1.48,2.75,2.75,0,0,1-1.82.55,4.3,4.3,0,0,1-1.2-.17A4.45,4.45,0,0,1,112.67,43.22Z"/><path class="cls-3" d="M123.92,43.29a3.46,3.46,0,0,1-1,.45,3.84,3.84,0,0,1-1,.14,3.24,3.24,0,0,1-2.35-.89,3.3,3.3,0,0,1-.91-2.49,3.85,3.85,0,0,1,.92-2.67,3.3,3.3,0,0,1,2.54-1,3.54,3.54,0,0,1,1,.13,4,4,0,0,1,1,.4l-.49.83a2.89,2.89,0,0,0-.71-.31,3.1,3.1,0,0,0-.76-.09,2,2,0,0,0-1.69.73,2.88,2.88,0,0,0-.58,1.87,2.67,2.67,0,0,0,.61,1.89,2.1,2.1,0,0,0,1.58.65,2.33,2.33,0,0,0,.68-.1,2.59,2.59,0,0,0,.72-.34Z"/><path class="cls-3" d="M128.34,43.88a3.17,3.17,0,0,1-2.41-1,3.53,3.53,0,0,1-.89-2.51,3.64,3.64,0,0,1,.92-2.64,3.43,3.43,0,0,1,2.53-1,3.06,3.06,0,0,1,2.37.93,4.19,4.19,0,0,1-.06,5.16A3.21,3.21,0,0,1,128.34,43.88Zm.08-1a1.93,1.93,0,0,0,1.57-.67,3.59,3.59,0,0,0,0-3.82,1.94,1.94,0,0,0-1.57-.67,2,2,0,0,0-1.62.7,2.88,2.88,0,0,0-.59,1.92,2.75,2.75,0,0,0,.59,1.86A2.06,2.06,0,0,0,128.42,42.93Z"/><path class="cls-3" d="M136.88,38l-.23-.06-.27,0a1.47,1.47,0,0,0-1.28.69,3,3,0,0,0-.47,1.74v3.41h-1.14V37h1.14v1.34h0a2.06,2.06,0,0,1,.7-1.08,1.69,1.69,0,0,1,1.09-.37,1.83,1.83,0,0,1,.35,0l.26,0Z"/><path class="cls-3" d="M143,42.59a2.44,2.44,0,0,1-.95,1,2.65,2.65,0,0,1-1.35.33,2.5,2.5,0,0,1-2-.91,3.68,3.68,0,0,1-.76-2.46,4,4,0,0,1,.84-2.68,2.78,2.78,0,0,1,2.24-1,2.46,2.46,0,0,1,1.19.27,2,2,0,0,1,.82.82h0V34h1.14v9.74H143V42.59Zm-3.92-2.14a2.86,2.86,0,0,0,.53,1.82,1.75,1.75,0,0,0,1.43.66,1.82,1.82,0,0,0,1.44-.64,2.45,2.45,0,0,0,.55-1.63v-1a1.93,1.93,0,0,0-.53-1.37,1.79,1.79,0,0,0-1.34-.56,1.82,1.82,0,0,0-1.53.72A3.11,3.11,0,0,0,139.05,40.45Z"/><path class="cls-3" d="M146.51,43.72V34.51h2.69a3,3,0,0,1,1.93.57,1.87,1.87,0,0,1,.71,1.55,2.21,2.21,0,0,1-.42,1.35,2.28,2.28,0,0,1-1.17.82v0a2.3,2.3,0,0,1,1.49.7,2.15,2.15,0,0,1,.55,1.54,2.41,2.41,0,0,1-.85,1.92,3.25,3.25,0,0,1-2.17.73Zm1.17-8.18v2.9h1.09a2.07,2.07,0,0,0,1.35-.41,1.45,1.45,0,0,0,.5-1.17,1.15,1.15,0,0,0-.44-1,2.15,2.15,0,0,0-1.3-.33Zm0,3.93v3.22h1.43a2.16,2.16,0,0,0,1.44-.44,1.49,1.49,0,0,0,.51-1.2,1.36,1.36,0,0,0-.54-1.18,2.67,2.67,0,0,0-1.61-.4Z"/><path class="cls-3" d="M157,43.88a3.17,3.17,0,0,1-2.41-1,3.49,3.49,0,0,1-.89-2.51,3.6,3.6,0,0,1,.92-2.64,3.42,3.42,0,0,1,2.52-1,3.1,3.1,0,0,1,2.38.93,4.22,4.22,0,0,1-.06,5.16A3.24,3.24,0,0,1,157,43.88Zm.07-1a2,2,0,0,0,1.58-.67,2.92,2.92,0,0,0,.55-1.91,3,3,0,0,0-.55-1.91,2.2,2.2,0,0,0-3.19,0,2.83,2.83,0,0,0-.6,1.92,2.7,2.7,0,0,0,.6,1.86A2.06,2.06,0,0,0,157,42.93Z"/><path class="cls-3" d="M165.42,43.63a2.47,2.47,0,0,1-.55.17,3,3,0,0,1-.62.06,1.71,1.71,0,0,1-1.29-.48,1.91,1.91,0,0,1-.47-1.4v-4h-1.15V37h1.15V35.44l1.15-.36V37h1.69v1h-1.69v3.92a1.26,1.26,0,0,0,.21.82.74.74,0,0,0,.61.26,1.58,1.58,0,0,0,.38,0,1.25,1.25,0,0,0,.31-.11Z"/><path class="cls-3" d="M166.73,40.47v-.88h3.5v.88Z"/><path class="cls-3" d="M173.4,42.75h0v4h-1.15V37h1.15v1.18h0a2.77,2.77,0,0,1,1-1,2.6,2.6,0,0,1,1.35-.34,2.45,2.45,0,0,1,2,.91,3.77,3.77,0,0,1,.73,2.42,4.18,4.18,0,0,1-.83,2.71,2.73,2.73,0,0,1-2.24,1,2.24,2.24,0,0,1-2-1.13Zm0-2.71v.9a2,2,0,0,0,.53,1.41,1.76,1.76,0,0,0,1.36.58,1.79,1.79,0,0,0,1.51-.74,3.42,3.42,0,0,0,.54-2,2.75,2.75,0,0,0-.5-1.74,1.69,1.69,0,0,0-1.39-.63,1.89,1.89,0,0,0-1.49.65A2.4,2.4,0,0,0,173.37,40Z"/><path class="cls-3" d="M183.66,38l-.24-.06-.27,0a1.47,1.47,0,0,0-1.28.69,3,3,0,0,0-.47,1.74v3.41h-1.14V37h1.14v1.34h0a2.13,2.13,0,0,1,.7-1.08,1.72,1.72,0,0,1,1.1-.37,1.78,1.78,0,0,1,.34,0l.27,0Z"/><path class="cls-3" d="M188,43.88a3.13,3.13,0,0,1-2.4-1,3.49,3.49,0,0,1-.9-2.51,3.6,3.6,0,0,1,.93-2.64,3.39,3.39,0,0,1,2.52-1,3.06,3.06,0,0,1,2.37.93,4.19,4.19,0,0,1-.06,5.16A3.21,3.21,0,0,1,188,43.88Zm.08-1a1.93,1.93,0,0,0,1.57-.67,3.59,3.59,0,0,0,0-3.82,1.94,1.94,0,0,0-1.57-.67,2,2,0,0,0-1.62.7,2.88,2.88,0,0,0-.59,1.92,2.7,2.7,0,0,0,.6,1.86A2,2,0,0,0,188,42.93Z"/><path class="cls-3" d="M194.24,43.94a3.32,3.32,0,0,1-.58,2.19,2.09,2.09,0,0,1-1.72.68,3.68,3.68,0,0,1-.49,0,2.81,2.81,0,0,1-.48-.12l.24-.95a2.15,2.15,0,0,0,.37.11,1.87,1.87,0,0,0,.34,0,1,1,0,0,0,.91-.43,2.75,2.75,0,0,0,.26-1.41V37h1.15Zm-.55-8.38a.78.78,0,0,1-.57-.23.74.74,0,0,1-.23-.54.77.77,0,0,1,.23-.56.84.84,0,0,1,1.13,0,.77.77,0,0,1,.23.56.74.74,0,0,1-.23.54A.77.77,0,0,1,193.69,35.56Z"/><path class="cls-3" d="M202,40.61h-4.73a2.56,2.56,0,0,0,.59,1.72,2.09,2.09,0,0,0,1.59.6,3.29,3.29,0,0,0,1.84-.59l.52.79a4.16,4.16,0,0,1-2.47.75A3.09,3.09,0,0,1,197,43a3.57,3.57,0,0,1-.86-2.54,3.8,3.8,0,0,1,.86-2.62,2.86,2.86,0,0,1,2.26-1,2.56,2.56,0,0,1,2.05.86,3.55,3.55,0,0,1,.73,2.38Zm-1.14-.9a2.21,2.21,0,0,0-.45-1.44,1.49,1.49,0,0,0-1.21-.52,1.74,1.74,0,0,0-1.28.53,2.43,2.43,0,0,0-.64,1.43Z"/><path class="cls-3" d="M208.51,43.29a3.46,3.46,0,0,1-1,.45,3.77,3.77,0,0,1-1,.14,3.26,3.26,0,0,1-2.36-.89,3.3,3.3,0,0,1-.91-2.49,3.81,3.81,0,0,1,.93-2.67,3.28,3.28,0,0,1,2.54-1,3.64,3.64,0,0,1,1,.13,4,4,0,0,1,.94.4l-.48.83a2.69,2.69,0,0,0-1.48-.4,2,2,0,0,0-1.68.73,2.83,2.83,0,0,0-.59,1.87,2.67,2.67,0,0,0,.61,1.89,2.1,2.1,0,0,0,1.58.65,2.33,2.33,0,0,0,.68-.1,2.46,2.46,0,0,0,.72-.34Z"/><path class="cls-3" d="M213.38,43.63a2.47,2.47,0,0,1-.55.17,3,3,0,0,1-.62.06,1.71,1.71,0,0,1-1.29-.48,1.91,1.91,0,0,1-.47-1.4v-4H209.3V37h1.15V35.44l1.15-.36V37h1.69v1H211.6v3.92a1.26,1.26,0,0,0,.21.82.74.74,0,0,0,.61.26,1.58,1.58,0,0,0,.38,0,1.25,1.25,0,0,0,.31-.11Z"/><path class="cls-3" d="M221.88,34.51l-3.39,9.21h-1.3l-3.32-9.21h1.3l2.49,7.22a3.64,3.64,0,0,1,.11.39c0,.13,0,.28.07.44h0a3,3,0,0,1,.08-.41c0-.15.08-.29.13-.44l2.54-7.2Z"/><path class="cls-3" d="M227.79,40.61h-4.74a2.52,2.52,0,0,0,.6,1.72,2.05,2.05,0,0,0,1.58.6,3.25,3.25,0,0,0,.91-.14,3.5,3.5,0,0,0,.94-.45l.52.79a4.56,4.56,0,0,1-1.18.57,4.39,4.39,0,0,1-1.3.18,3.1,3.1,0,0,1-2.38-.91,3.61,3.61,0,0,1-.86-2.54,3.85,3.85,0,0,1,.87-2.62,2.86,2.86,0,0,1,2.25-1,2.58,2.58,0,0,1,2.06.86,3.6,3.6,0,0,1,.73,2.38Zm-1.15-.9a2.11,2.11,0,0,0-.45-1.44,1.48,1.48,0,0,0-1.21-.52,1.75,1.75,0,0,0-1.28.53,2.43,2.43,0,0,0-.64,1.43Z"/><path class="cls-3" d="M235.29,43.23a3.59,3.59,0,0,1-.91,2.68,3.48,3.48,0,0,1-2.55.9,5.26,5.26,0,0,1-1.29-.14,6,6,0,0,1-1.21-.42l.41-.87a4.46,4.46,0,0,0,1,.36,4.55,4.55,0,0,0,1.07.12,2.31,2.31,0,0,0,1.71-.63,2.52,2.52,0,0,0,.61-1.85v-.79h0a2.7,2.7,0,0,1-1,1,2.77,2.77,0,0,1-1.34.32,2.54,2.54,0,0,1-2-.9,3.62,3.62,0,0,1-.77-2.42,4.15,4.15,0,0,1,.85-2.7,2.75,2.75,0,0,1,2.24-1,2.48,2.48,0,0,1,1.18.27,2.17,2.17,0,0,1,.83.82h0V37h1.14Zm-1.14-2.56v-1a1.92,1.92,0,0,0-.53-1.36,1.72,1.72,0,0,0-1.32-.57,1.9,1.9,0,0,0-1.54.68,3.2,3.2,0,0,0-.56,2,2.8,2.8,0,0,0,.52,1.8,1.73,1.73,0,0,0,1.43.64,1.83,1.83,0,0,0,1.45-.64A2.36,2.36,0,0,0,234.15,40.67Z"/><path class="cls-3" d="M242.36,43.72h-1.13V42.66h0a2.52,2.52,0,0,1-.86.91,2.22,2.22,0,0,1-1.19.31,2.18,2.18,0,0,1-1.54-.55,1.92,1.92,0,0,1-.58-1.46,1.9,1.9,0,0,1,.59-1.45,3.07,3.07,0,0,1,1.7-.72l1.91-.26v-.15a1.54,1.54,0,0,0-.39-1.18,1.45,1.45,0,0,0-1-.36,2.71,2.71,0,0,0-1,.2,3,3,0,0,0-.94.6l-.62-.69a3.94,3.94,0,0,1,1.22-.78,3.87,3.87,0,0,1,1.43-.26,2.49,2.49,0,0,1,1.86.64,2.63,2.63,0,0,1,.62,1.9ZM241.23,41v-.65l-1.6.22a2.53,2.53,0,0,0-1.11.37,1,1,0,0,0-.36.85,1.15,1.15,0,0,0,.34.89,1.23,1.23,0,0,0,.86.31,1.77,1.77,0,0,0,1.36-.56A2.05,2.05,0,0,0,241.23,41Z"/><path class="cls-3" d="M243.88,43.22l.54-.86a4.18,4.18,0,0,0,.84.43,2.69,2.69,0,0,0,.92.14,1.79,1.79,0,0,0,1-.24.84.84,0,0,0,.36-.74.9.9,0,0,0-.31-.69,2.43,2.43,0,0,0-1-.44,3.57,3.57,0,0,1-1.72-.81,1.68,1.68,0,0,1-.47-1.22,1.77,1.77,0,0,1,.64-1.41,2.62,2.62,0,0,1,1.76-.56,3.82,3.82,0,0,1,1,.14,3.76,3.76,0,0,1,1,.46l-.5.85a3.76,3.76,0,0,0-.81-.4,2.58,2.58,0,0,0-.73-.11,1.65,1.65,0,0,0-1,.24.77.77,0,0,0-.34.68.75.75,0,0,0,.33.67,3.92,3.92,0,0,0,1.11.43,3.52,3.52,0,0,1,1.54.76,1.75,1.75,0,0,1,.52,1.31,1.82,1.82,0,0,1-.68,1.48,2.75,2.75,0,0,1-1.82.55,4.3,4.3,0,0,1-1.2-.17A4.45,4.45,0,0,1,243.88,43.22Z"/><path class="cls-4" d="M41,13.09H37.43v3.1h3.29v1H37.43v4H36.26V12.05H41Z"/><path class="cls-4" d="M48.16,18.15H43.42a2.57,2.57,0,0,0,.6,1.72,2.09,2.09,0,0,0,1.59.6,3.3,3.3,0,0,0,.91-.14,3.61,3.61,0,0,0,.93-.45l.52.79a4.21,4.21,0,0,1-2.47.75,3.13,3.13,0,0,1-2.38-.91A3.57,3.57,0,0,1,42.26,18a3.78,3.78,0,0,1,.86-2.62,2.86,2.86,0,0,1,2.26-1,2.56,2.56,0,0,1,2,.86,3.53,3.53,0,0,1,.73,2.38ZM47,17.25a2.2,2.2,0,0,0-.44-1.45,1.53,1.53,0,0,0-1.21-.51,1.72,1.72,0,0,0-1.28.53,2.35,2.35,0,0,0-.64,1.43Z"/><path class="cls-4" d="M54.7,21.26H53.56V20.2h0a2.52,2.52,0,0,1-.86.91,2.35,2.35,0,0,1-1.2.31A2.13,2.13,0,0,1,50,20.86a1.89,1.89,0,0,1-.59-1.45A1.94,1.94,0,0,1,50,18a3,3,0,0,1,1.7-.72L53.57,17v-.15a1.54,1.54,0,0,0-.39-1.18,1.48,1.48,0,0,0-1-.36,2.76,2.76,0,0,0-1,.2,3.11,3.11,0,0,0-.94.6l-.62-.7a3.73,3.73,0,0,1,2.65-1,2.47,2.47,0,0,1,1.86.64,2.59,2.59,0,0,1,.63,1.9Zm-1.13-2.75v-.65L52,18.08a2.43,2.43,0,0,0-1.1.37,1,1,0,0,0-.37.85,1.13,1.13,0,0,0,.35.88,1.21,1.21,0,0,0,.85.32,1.76,1.76,0,0,0,1.36-.56A2,2,0,0,0,53.57,18.51Z"/><path class="cls-4" d="M60.12,21.17a2.47,2.47,0,0,1-.55.17,2.9,2.9,0,0,1-.62.06,1.71,1.71,0,0,1-1.29-.48,1.92,1.92,0,0,1-.46-1.4v-4H56.05v-1H57.2V13l1.14-.37v1.91H60v1H58.34v3.92a1.28,1.28,0,0,0,.21.82.75.75,0,0,0,.62.26,1.57,1.57,0,0,0,.37,0,1.85,1.85,0,0,0,.31-.11Z"/><path class="cls-4" d="M67.06,21.26H65.92V20.18h0a2.25,2.25,0,0,1-2.09,1.24A2.21,2.21,0,0,1,62,20.7a3.3,3.3,0,0,1-.6-2.15v-4h1.14v3.85a2.54,2.54,0,0,0,.4,1.57,1.4,1.4,0,0,0,1.2.53,1.58,1.58,0,0,0,1.27-.58,2.21,2.21,0,0,0,.5-1.5V14.52h1.14Z"/><path class="cls-4" d="M72.67,15.5l-.23-.06-.27,0a1.47,1.47,0,0,0-1.28.69,3,3,0,0,0-.47,1.74v3.41H69.28V14.52h1.14v1.34h0a2.2,2.2,0,0,1,.7-1.09,1.75,1.75,0,0,1,1.09-.37l.35,0,.26.06Z"/><path class="cls-4" d="M79.58,18.15H74.84a2.52,2.52,0,0,0,.6,1.72,2.05,2.05,0,0,0,1.58.6,3.25,3.25,0,0,0,.91-.14,3.61,3.61,0,0,0,.93-.45l.52.79a4.5,4.5,0,0,1-1.17.57,4.44,4.44,0,0,1-1.3.18,3.13,3.13,0,0,1-2.38-.91A3.57,3.57,0,0,1,73.67,18a3.83,3.83,0,0,1,.86-2.62,2.88,2.88,0,0,1,2.26-1,2.54,2.54,0,0,1,2,.86,3.53,3.53,0,0,1,.74,2.38Zm-1.15-.9A2.26,2.26,0,0,0,78,15.8a1.51,1.51,0,0,0-1.21-.51,1.75,1.75,0,0,0-1.28.53,2.41,2.41,0,0,0-.64,1.43Z"/><path class="cls-4" d="M85.91,20.13a2.48,2.48,0,0,1-.94,1,2.7,2.7,0,0,1-1.35.33,2.55,2.55,0,0,1-2-.91,3.73,3.73,0,0,1-.76-2.46,4.07,4.07,0,0,1,.84-2.69,2.77,2.77,0,0,1,2.24-1,2.5,2.5,0,0,1,1.2.27,2.1,2.1,0,0,1,.81.81h0V11.52h1.14v9.74H85.94V20.13ZM82,18a2.83,2.83,0,0,0,.53,1.81,1.73,1.73,0,0,0,1.43.67,1.79,1.79,0,0,0,1.44-.65,2.37,2.37,0,0,0,.55-1.62v-1a1.93,1.93,0,0,0-.53-1.37,1.77,1.77,0,0,0-1.34-.56,1.82,1.82,0,0,0-1.52.71A3.14,3.14,0,0,0,82,18Z"/><path class="cls-4" d="M96.3,15.5l-.24-.06-.26,0a1.47,1.47,0,0,0-1.28.69,3,3,0,0,0-.47,1.74v3.41H92.91V14.52h1.14v1.34h0a2.21,2.21,0,0,1,.71-1.09,1.75,1.75,0,0,1,1.09-.37l.34,0,.27.06Z"/><path class="cls-4" d="M103.2,18.15H98.47a2.56,2.56,0,0,0,.59,1.72,2.09,2.09,0,0,0,1.59.6,3.3,3.3,0,0,0,.91-.14,3.61,3.61,0,0,0,.93-.45l.52.79a4.16,4.16,0,0,1-2.47.75,3.13,3.13,0,0,1-2.38-.91A3.57,3.57,0,0,1,97.3,18a3.78,3.78,0,0,1,.86-2.62,2.86,2.86,0,0,1,2.26-1,2.56,2.56,0,0,1,2,.86,3.53,3.53,0,0,1,.73,2.38Zm-1.15-.9a2.2,2.2,0,0,0-.44-1.45,1.53,1.53,0,0,0-1.21-.51,1.74,1.74,0,0,0-1.28.53,2.41,2.41,0,0,0-.64,1.43Z"/><path class="cls-4" d="M106.06,20.29h0v4h-1.14V14.52H106V15.7h0a2.8,2.8,0,0,1,1-1,2.69,2.69,0,0,1,1.34-.33,2.47,2.47,0,0,1,2,.91,3.77,3.77,0,0,1,.73,2.42,4.18,4.18,0,0,1-.83,2.71,2.73,2.73,0,0,1-2.24,1,2.29,2.29,0,0,1-1.16-.29A2.38,2.38,0,0,1,106.06,20.29Zm0-2.71v.9a2,2,0,0,0,.53,1.41,1.8,1.8,0,0,0,1.36.58,1.76,1.76,0,0,0,1.5-.74,3.36,3.36,0,0,0,.55-2.06,2.64,2.64,0,0,0-.51-1.73,1.67,1.67,0,0,0-1.38-.63,1.87,1.87,0,0,0-1.49.65A2.4,2.4,0,0,0,106,17.58Z"/><path class="cls-4" d="M115.77,21.42a3.16,3.16,0,0,1-2.4-1,3.49,3.49,0,0,1-.9-2.51,3.6,3.6,0,0,1,.93-2.64,3.35,3.35,0,0,1,2.52-1,3.06,3.06,0,0,1,2.37.93,3.61,3.61,0,0,1,.86,2.56,3.59,3.59,0,0,1-.92,2.6A3.25,3.25,0,0,1,115.77,21.42Zm.08-1a1.92,1.92,0,0,0,1.58-.68,3,3,0,0,0,.55-1.9,2.9,2.9,0,0,0-.56-1.91,1.9,1.9,0,0,0-1.57-.67,2,2,0,0,0-1.61.7,2.82,2.82,0,0,0-.6,1.91,2.71,2.71,0,0,0,.6,1.87A2.06,2.06,0,0,0,115.85,20.47Z"/><path class="cls-4" d="M120.33,20.75l.53-.86a3.35,3.35,0,0,0,.84.43,2.69,2.69,0,0,0,.92.15,1.85,1.85,0,0,0,1-.24.88.88,0,0,0,.35-.75.89.89,0,0,0-.31-.68,2.56,2.56,0,0,0-1-.45,3.57,3.57,0,0,1-1.72-.8,1.69,1.69,0,0,1-.47-1.23,1.77,1.77,0,0,1,.64-1.4,2.63,2.63,0,0,1,1.77-.56,3.75,3.75,0,0,1,1,.14,3.46,3.46,0,0,1,1,.46l-.49.84a3.67,3.67,0,0,0-.81-.39,2.33,2.33,0,0,0-.74-.11,1.67,1.67,0,0,0-1,.24.76.76,0,0,0-.34.68.78.78,0,0,0,.33.67,3.67,3.67,0,0,0,1.11.42,3.56,3.56,0,0,1,1.55.77,1.73,1.73,0,0,1,.51,1.31,1.84,1.84,0,0,1-.67,1.48,2.85,2.85,0,0,1-1.83.55,4.3,4.3,0,0,1-1.2-.17A3.91,3.91,0,0,1,120.33,20.75Z"/><path class="cls-4" d="M127.34,13.1a.78.78,0,0,1-.57-.23.8.8,0,0,1,0-1.1.77.77,0,0,1,.57-.22.8.8,0,0,1,.57.22.8.8,0,0,1,0,1.1A.81.81,0,0,1,127.34,13.1Zm.56,8.16h-1.15V14.52h1.15Z"/><path class="cls-4" d="M133.49,21.17a2.25,2.25,0,0,1-.54.17,3,3,0,0,1-.62.06,1.71,1.71,0,0,1-1.29-.48,1.92,1.92,0,0,1-.47-1.4v-4h-1.15v-1h1.15V13l1.15-.37v1.91h1.68v1h-1.68v3.92a1.28,1.28,0,0,0,.21.82.73.73,0,0,0,.61.26,1.58,1.58,0,0,0,.38,0,1.46,1.46,0,0,0,.3-.11Z"/><path class="cls-4" d="M137.78,21.42a3.16,3.16,0,0,1-2.4-1,3.49,3.49,0,0,1-.9-2.51,3.6,3.6,0,0,1,.93-2.64,3.33,3.33,0,0,1,2.52-1,3.06,3.06,0,0,1,2.37.93,3.65,3.65,0,0,1,.86,2.56,3.64,3.64,0,0,1-.92,2.6A3.25,3.25,0,0,1,137.78,21.42Zm.08-1a1.94,1.94,0,0,0,1.58-.68,3,3,0,0,0,.55-1.9,2.9,2.9,0,0,0-.56-1.91,1.91,1.91,0,0,0-1.57-.67,2,2,0,0,0-1.61.7,2.82,2.82,0,0,0-.6,1.91,2.71,2.71,0,0,0,.6,1.87A2,2,0,0,0,137.86,20.47Z"/><path class="cls-4" d="M146.33,15.5l-.24-.06-.26,0a1.48,1.48,0,0,0-1.29.69,3,3,0,0,0-.47,1.74v3.41h-1.14V14.52h1.14v1.34h0a2.2,2.2,0,0,1,.7-1.09,1.78,1.78,0,0,1,1.1-.37l.34,0,.27.06Z"/><path class="cls-4" d="M148.35,13.1a.78.78,0,0,1-.56-1.33.75.75,0,0,1,.56-.22.77.77,0,0,1,.57.22.77.77,0,0,1,0,1.1A.78.78,0,0,1,148.35,13.1Zm.56,8.16h-1.14V14.52h1.14Z"/><path class="cls-4" d="M156.67,18.15h-4.74a2.52,2.52,0,0,0,.6,1.72,2.09,2.09,0,0,0,1.59.6,3.23,3.23,0,0,0,.9-.14,3.66,3.66,0,0,0,.94-.45l.52.79a4.21,4.21,0,0,1-2.47.75,3.15,3.15,0,0,1-2.39-.91,3.66,3.66,0,0,1-.86-2.54,3.84,3.84,0,0,1,.87-2.62,2.86,2.86,0,0,1,2.26-1,2.56,2.56,0,0,1,2.05.86,3.53,3.53,0,0,1,.73,2.38Zm-1.15-.9a2.2,2.2,0,0,0-.44-1.45,1.53,1.53,0,0,0-1.21-.51,1.76,1.76,0,0,0-1.29.53,2.4,2.4,0,0,0-.63,1.43Z"/><path class="cls-4" d="M157.76,20.75l.54-.86a3.35,3.35,0,0,0,.84.43,2.69,2.69,0,0,0,.92.15,1.81,1.81,0,0,0,1-.24.92.92,0,0,0,0-1.43,2.44,2.44,0,0,0-1-.45,3.66,3.66,0,0,1-1.73-.8,1.72,1.72,0,0,1-.46-1.23,1.77,1.77,0,0,1,.64-1.4,2.62,2.62,0,0,1,1.76-.56,3.88,3.88,0,0,1,1,.14,3.46,3.46,0,0,1,1,.46l-.5.84a3.67,3.67,0,0,0-.81-.39,2.27,2.27,0,0,0-.73-.11,1.65,1.65,0,0,0-1,.24.76.76,0,0,0-.34.68.78.78,0,0,0,.33.67,3.67,3.67,0,0,0,1.11.42,3.52,3.52,0,0,1,1.54.77,1.73,1.73,0,0,1,.51,1.31,1.81,1.81,0,0,1-.67,1.48,2.8,2.8,0,0,1-1.82.55,4.3,4.3,0,0,1-1.2-.17A4.12,4.12,0,0,1,157.76,20.75Z"/><path class="cls-5" d="M36.87,59.39V51.72H39a4.38,4.38,0,0,1,3.05.93,3.62,3.62,0,0,1,1,2.81A3.77,3.77,0,0,1,42,58.31a4.17,4.17,0,0,1-3,1.08Zm1-6.81v5.94H39a3.18,3.18,0,0,0,2.3-.79,3,3,0,0,0,.82-2.25,2.87,2.87,0,0,0-.77-2.17,3.25,3.25,0,0,0-2.3-.73Z"/><path class="cls-5" d="M45.06,52.59a.63.63,0,0,1-.47-.19A.62.62,0,0,1,44.4,52a.67.67,0,0,1,.19-.47.66.66,0,0,1,.47-.18.68.68,0,0,1,.48.18.67.67,0,0,1,.19.47.62.62,0,0,1-.19.45A.65.65,0,0,1,45.06,52.59Zm.47,6.8h-1V53.78h1Z"/><path class="cls-5" d="M47,59l.44-.72a2.91,2.91,0,0,0,.7.36,2.11,2.11,0,0,0,.77.13,1.44,1.44,0,0,0,.85-.21.7.7,0,0,0,.3-.62.73.73,0,0,0-.26-.57,2.17,2.17,0,0,0-.82-.37,3,3,0,0,1-1.43-.67,1.41,1.41,0,0,1-.39-1,1.5,1.5,0,0,1,.53-1.17,2.18,2.18,0,0,1,1.47-.47,3,3,0,0,1,.86.12,2.81,2.81,0,0,1,.81.38l-.41.71a2.74,2.74,0,0,0-.67-.33,2.16,2.16,0,0,0-.61-.1,1.44,1.44,0,0,0-.82.2.64.64,0,0,0-.28.57.63.63,0,0,0,.28.56,2.93,2.93,0,0,0,.92.35,3,3,0,0,1,1.29.64,1.47,1.47,0,0,1,.42,1.09,1.53,1.53,0,0,1-.55,1.24,2.38,2.38,0,0,1-1.53.45,3.2,3.2,0,0,1-1-.14A3.08,3.08,0,0,1,47,59Z"/><path class="cls-5" d="M56.32,59a3.35,3.35,0,0,1-.8.37,3.43,3.43,0,0,1-.86.11,2.68,2.68,0,0,1-2-.74,2.77,2.77,0,0,1-.76-2.07,3.13,3.13,0,0,1,.78-2.22,2.69,2.69,0,0,1,2.11-.85,3.15,3.15,0,0,1,1.61.44l-.4.7a2.23,2.23,0,0,0-.6-.26,2.59,2.59,0,0,0-.63-.08,1.67,1.67,0,0,0-1.4.61,2.37,2.37,0,0,0-.49,1.56,2.21,2.21,0,0,0,.51,1.57,1.74,1.74,0,0,0,1.32.55,1.87,1.87,0,0,0,.56-.09,2.29,2.29,0,0,0,.6-.28Z"/><path class="cls-5" d="M60,59.52a2.59,2.59,0,0,1-2-.79,2.89,2.89,0,0,1-.75-2.09,3,3,0,0,1,.77-2.2,2.82,2.82,0,0,1,2.1-.8,2.56,2.56,0,0,1,2,.78,3,3,0,0,1,.71,2.13,3,3,0,0,1-.76,2.16A2.68,2.68,0,0,1,60,59.52Zm.06-.79a1.63,1.63,0,0,0,1.32-.56,3,3,0,0,0,0-3.18,1.62,1.62,0,0,0-1.32-.55,1.66,1.66,0,0,0-1.34.58,2.35,2.35,0,0,0-.5,1.59,2.3,2.3,0,0,0,.5,1.56A1.71,1.71,0,0,0,60.06,58.73Z"/><path class="cls-5" d="M67.12,54.59l-.2-.05H66.7a1.23,1.23,0,0,0-1.07.57,2.53,2.53,0,0,0-.39,1.45v2.84h-.95V53.78h.95v1.11h0a1.8,1.8,0,0,1,.59-.9,1.41,1.41,0,0,1,.91-.31l.29,0,.22,0Z"/><path class="cls-5" d="M72.19,58.45a2.09,2.09,0,0,1-.79.8,2.24,2.24,0,0,1-1.12.27,2.12,2.12,0,0,1-1.7-.75A3.11,3.11,0,0,1,68,56.71a3.35,3.35,0,0,1,.7-2.23,2.32,2.32,0,0,1,1.87-.84,2,2,0,0,1,1,.23,1.65,1.65,0,0,1,.68.68h0V51.28h1v8.11h-1v-.94Zm-3.27-1.78a2.32,2.32,0,0,0,.45,1.51,1.43,1.43,0,0,0,1.19.55,1.51,1.51,0,0,0,1.2-.53,2,2,0,0,0,.45-1.36V56a1.57,1.57,0,0,0-.44-1.14,1.45,1.45,0,0,0-1.11-.46,1.51,1.51,0,0,0-1.27.59A2.58,2.58,0,0,0,68.92,56.67Z"/><path class="cls-5" d="M79,58.65h0v.74H78V51.28h1v3.48h0a2.28,2.28,0,0,1,.82-.84,2.31,2.31,0,0,1,1.13-.28,2.06,2.06,0,0,1,1.68.75,3.12,3.12,0,0,1,.61,2,3.45,3.45,0,0,1-.69,2.26,2.27,2.27,0,0,1-1.87.85,2.13,2.13,0,0,1-1-.21A1.94,1.94,0,0,1,79,58.65Zm0-2.33v.76a1.64,1.64,0,0,0,.44,1.17,1.59,1.59,0,0,0,2.39-.13,2.88,2.88,0,0,0,.45-1.72A2.24,2.24,0,0,0,81.83,55a1.4,1.4,0,0,0-1.15-.52,1.58,1.58,0,0,0-1.25.53A2,2,0,0,0,79,56.32Z"/><path class="cls-5" d="M87.09,59.52a2.63,2.63,0,0,1-2-.79,2.93,2.93,0,0,1-.74-2.09,3,3,0,0,1,.77-2.2,2.82,2.82,0,0,1,2.1-.8,2.56,2.56,0,0,1,2,.78,3.06,3.06,0,0,1,.71,2.13,3,3,0,0,1-.76,2.16A2.7,2.7,0,0,1,87.09,59.52Zm.06-.79a1.63,1.63,0,0,0,1.32-.56,2.46,2.46,0,0,0,.45-1.58,2.42,2.42,0,0,0-.46-1.6,1.59,1.59,0,0,0-1.31-.55,1.65,1.65,0,0,0-1.34.58,2.35,2.35,0,0,0-.5,1.59,2.3,2.3,0,0,0,.5,1.56A1.71,1.71,0,0,0,87.15,58.73Z"/><path class="cls-5" d="M94.13,59.32a2.69,2.69,0,0,1-.46.14,2.59,2.59,0,0,1-.51,0,1.43,1.43,0,0,1-1.08-.4,1.59,1.59,0,0,1-.39-1.17V54.57h-1v-.79h1V52.49l1-.3v1.59h1.4v.79h-1.4v3.26a1.13,1.13,0,0,0,.17.69.64.64,0,0,0,.52.21,1.1,1.1,0,0,0,.31,0,.81.81,0,0,0,.25-.09Z"/><path class="cls-5" d="M102.34,59a3.18,3.18,0,0,1-.8.37,3.43,3.43,0,0,1-.86.11,2.68,2.68,0,0,1-2-.74A2.77,2.77,0,0,1,98,56.71a3.13,3.13,0,0,1,.78-2.22,2.69,2.69,0,0,1,2.11-.85,3.2,3.2,0,0,1,.83.11,3.26,3.26,0,0,1,.78.33l-.4.7a2.23,2.23,0,0,0-.6-.26,2.47,2.47,0,0,0-.63-.08,1.67,1.67,0,0,0-1.4.61,2.37,2.37,0,0,0-.49,1.56,2.21,2.21,0,0,0,.51,1.57,1.74,1.74,0,0,0,1.32.55,1.87,1.87,0,0,0,.56-.09,2,2,0,0,0,.6-.28Z"/><path class="cls-5" d="M106.47,54.59l-.2-.05h-.22a1.23,1.23,0,0,0-1.07.57,2.53,2.53,0,0,0-.39,1.45v2.84h-1V53.78h1v1.11h0a1.8,1.8,0,0,1,.59-.9,1.41,1.41,0,0,1,.91-.31l.29,0,.22,0Z"/><path class="cls-5" d="M112.22,56.8h-4a2.12,2.12,0,0,0,.5,1.43,1.76,1.76,0,0,0,1.32.5,2.91,2.91,0,0,0,.76-.11,3.11,3.11,0,0,0,.78-.38l.43.66a3.52,3.52,0,0,1-1,.47,3.71,3.71,0,0,1-1.08.15,2.59,2.59,0,0,1-2-.75,3,3,0,0,1-.72-2.12,3.2,3.2,0,0,1,.72-2.18,2.39,2.39,0,0,1,1.88-.83,2.1,2.1,0,0,1,1.71.72,2.93,2.93,0,0,1,.61,2Zm-1-.75a1.8,1.8,0,0,0-.38-1.2,1.24,1.24,0,0,0-1-.43,1.44,1.44,0,0,0-1.06.44,2,2,0,0,0-.53,1.19Z"/><path class="cls-5" d="M117.67,59.39h-1v-.88h0a2.11,2.11,0,0,1-.72.76,1.87,1.87,0,0,1-1,.25,1.76,1.76,0,0,1-1.28-.46,1.6,1.6,0,0,1-.49-1.21,1.61,1.61,0,0,1,.5-1.21,2.52,2.52,0,0,1,1.41-.6l1.6-.21V55.7a1.26,1.26,0,0,0-.33-1,1.21,1.21,0,0,0-.87-.3,2.24,2.24,0,0,0-.84.16,2.72,2.72,0,0,0-.78.5l-.52-.58a3.52,3.52,0,0,1,1-.65,3.27,3.27,0,0,1,1.19-.21,2.11,2.11,0,0,1,1.55.53,2.19,2.19,0,0,1,.52,1.59Zm-.94-2.29v-.54l-1.34.18a2.06,2.06,0,0,0-.92.31.84.84,0,0,0-.31.71,1,1,0,0,0,.29.74,1,1,0,0,0,.72.26,1.47,1.47,0,0,0,1.13-.47A1.72,1.72,0,0,0,116.73,57.1Z"/><path class="cls-5" d="M122.19,59.32a3,3,0,0,1-.46.14,2.59,2.59,0,0,1-.51,0,1.43,1.43,0,0,1-1.08-.4,1.59,1.59,0,0,1-.39-1.17V54.57h-1v-.79h1V52.49l1-.3v1.59h1.4v.79h-1.4v3.26a1.13,1.13,0,0,0,.17.69.61.61,0,0,0,.51.21,1.06,1.06,0,0,0,.31,0,.88.88,0,0,0,.26-.09Z"/><path class="cls-5" d="M127.93,56.8h-4a2.12,2.12,0,0,0,.5,1.43,1.73,1.73,0,0,0,1.32.5,2.91,2.91,0,0,0,.76-.11,3.11,3.11,0,0,0,.78-.38l.43.66a3.52,3.52,0,0,1-1,.47,3.71,3.71,0,0,1-1.08.15,2.59,2.59,0,0,1-2-.75,3,3,0,0,1-.72-2.12,3.11,3.11,0,0,1,.72-2.18,2.39,2.39,0,0,1,1.88-.83,2.13,2.13,0,0,1,1.71.72,2.93,2.93,0,0,1,.61,2Zm-1-.75a1.74,1.74,0,0,0-.37-1.2,1.24,1.24,0,0,0-1-.43,1.44,1.44,0,0,0-1.06.44,2,2,0,0,0-.54,1.19Z"/><path class="cls-5" d="M133.21,58.45a2.17,2.17,0,0,1-.79.8,2.24,2.24,0,0,1-1.12.27,2.12,2.12,0,0,1-1.7-.75,3.11,3.11,0,0,1-.63-2.06,3.35,3.35,0,0,1,.7-2.23,2.32,2.32,0,0,1,1.87-.84,2.07,2.07,0,0,1,1,.23,1.65,1.65,0,0,1,.68.68h0V51.28h1v8.11h-1v-.94Zm-3.27-1.78a2.32,2.32,0,0,0,.45,1.51,1.42,1.42,0,0,0,1.18.55,1.54,1.54,0,0,0,1.21-.53,2,2,0,0,0,.45-1.36V56a1.57,1.57,0,0,0-.44-1.14,1.46,1.46,0,0,0-1.11-.46,1.5,1.5,0,0,0-1.27.59A2.58,2.58,0,0,0,129.94,56.67Z"/><path class="cls-5" d="M141.74,52a2,2,0,0,0-.27-.08l-.26,0a.83.83,0,0,0-.66.24.94.94,0,0,0-.22.69v.91h1.29v.79h-1.29v4.82h-.94V54.57h-.95v-.79h.95v-1a1.58,1.58,0,0,1,.48-1.23,1.92,1.92,0,0,1,1.34-.45,2.38,2.38,0,0,1,.39,0,1.61,1.61,0,0,1,.36.1Z"/><path class="cls-5" d="M145.06,59.52a2.63,2.63,0,0,1-2-.79,2.93,2.93,0,0,1-.74-2.09,3,3,0,0,1,.77-2.2,2.82,2.82,0,0,1,2.1-.8,2.56,2.56,0,0,1,2,.78,3.06,3.06,0,0,1,.71,2.13,3,3,0,0,1-.76,2.16A2.7,2.7,0,0,1,145.06,59.52Zm.06-.79a1.6,1.6,0,0,0,1.31-.56,3,3,0,0,0,0-3.18,1.6,1.6,0,0,0-1.31-.55,1.67,1.67,0,0,0-1.35.58,2.4,2.4,0,0,0-.49,1.59,2.3,2.3,0,0,0,.5,1.56A1.71,1.71,0,0,0,145.12,58.73Z"/><path class="cls-5" d="M152.18,54.59l-.2-.05h-.22a1.23,1.23,0,0,0-1.07.57,2.53,2.53,0,0,0-.39,1.45v2.84h-1V53.78h1v1.11h0a1.8,1.8,0,0,1,.59-.9,1.39,1.39,0,0,1,.91-.31l.29,0,.22,0Z"/><path class="cls-5" d="M159.13,59.32a3,3,0,0,1-.46.14,2.59,2.59,0,0,1-.51,0,1.43,1.43,0,0,1-1.08-.4,1.59,1.59,0,0,1-.39-1.17V54.57h-.95v-.79h.95V52.49l1-.3v1.59h1.4v.79h-1.4v3.26a1.13,1.13,0,0,0,.17.69.64.64,0,0,0,.52.21,1.1,1.1,0,0,0,.31,0,.81.81,0,0,0,.25-.09Z"/><path class="cls-5" d="M165,59.39h-.95V56.15a2.19,2.19,0,0,0-.32-1.29,1.12,1.12,0,0,0-1-.42,1.41,1.41,0,0,0-1.09.49,1.88,1.88,0,0,0-.44,1.28v3.18h-1V51.28h1V54.7h0a2.21,2.21,0,0,1,.79-.79,2,2,0,0,1,1-.27,1.74,1.74,0,0,1,1.43.58,2.66,2.66,0,0,1,.47,1.71Z"/><path class="cls-5" d="M171.31,56.8h-3.95a2.08,2.08,0,0,0,.5,1.43,1.73,1.73,0,0,0,1.32.5,2.91,2.91,0,0,0,.76-.11,3.11,3.11,0,0,0,.78-.38l.43.66a3.65,3.65,0,0,1-1,.47,3.71,3.71,0,0,1-1.08.15,2.62,2.62,0,0,1-2-.75,3,3,0,0,1-.71-2.12,3.11,3.11,0,0,1,.72-2.18,2.39,2.39,0,0,1,1.88-.83,2.13,2.13,0,0,1,1.71.72,2.93,2.93,0,0,1,.61,2Zm-1-.75a1.79,1.79,0,0,0-.37-1.2,1.24,1.24,0,0,0-1-.43,1.46,1.46,0,0,0-1.07.44,2,2,0,0,0-.53,1.19Z"/><path class="cls-5" d="M179.78,52.58h-3v2.59h2.75V56h-2.75v3.36h-1V51.72h3.94Z"/><path class="cls-5" d="M181.69,52.59a.63.63,0,0,1-.47-.19A.61.61,0,0,1,181,52a.62.62,0,0,1,.65-.65.68.68,0,0,1,.48.18.67.67,0,0,1,.19.47.62.62,0,0,1-.19.45A.65.65,0,0,1,181.69,52.59Zm.47,6.8h-.95V53.78h.95Z"/><path class="cls-5" d="M188.57,53.78l-2.22,5.61h-1l-2.12-5.61h1l1.39,4c0,.15.09.29.13.42a3.35,3.35,0,0,1,.07.37h0c0-.14,0-.27.07-.4s.07-.25.11-.37l1.46-4.06Z"/><path class="cls-5" d="M194.15,56.8h-3.94a2.07,2.07,0,0,0,.49,1.43,1.76,1.76,0,0,0,1.33.5,2.9,2.9,0,0,0,.75-.11,3.11,3.11,0,0,0,.78-.38l.43.66a3.6,3.6,0,0,1-1,.47,3.73,3.73,0,0,1-1.09.15,2.6,2.6,0,0,1-2-.75,3.05,3.05,0,0,1-.72-2.12,3.2,3.2,0,0,1,.72-2.18,2.4,2.4,0,0,1,1.88-.83,2.1,2.1,0,0,1,1.71.72,2.93,2.93,0,0,1,.61,2Zm-1-.75a1.85,1.85,0,0,0-.37-1.2,1.27,1.27,0,0,0-1-.43,1.46,1.46,0,0,0-1.07.44,2,2,0,0,0-.53,1.19Z"/><path class="cls-5" d="M203.59,59.39h-1V54.3c0-.21,0-.44,0-.69s0-.53.06-.82h0c0,.18-.08.33-.12.46a2.14,2.14,0,0,1-.11.31l-2.54,5.83h-.53l-2.55-5.79c0-.09-.07-.2-.11-.33s-.08-.3-.12-.48h0a5.72,5.72,0,0,1,0,.64c0,.26,0,.56,0,.9v5.06h-.93V51.72H197L199.27,57c.1.2.17.38.23.53a2.4,2.4,0,0,1,.12.4h0l.21-.55c.06-.16.11-.29.16-.4l2.32-5.25h1.25Z"/><path class="cls-5" d="M209.4,51.71V54.1h-.82V51.71Zm1.81,0V54.1h-.82V51.71Z"/><path class="cls-5" d="M214.17,56.6v2.79h-1V51.72h2.16a2.78,2.78,0,0,1,1.93.61,2.18,2.18,0,0,1,.68,1.74,2.36,2.36,0,0,1-.76,1.82,2.83,2.83,0,0,1-2,.71Zm0-4v3.16h.91a2,2,0,0,0,1.39-.42,1.53,1.53,0,0,0,.48-1.21,1.46,1.46,0,0,0-.44-1.15,2,2,0,0,0-1.32-.38Z"/><path class="cls-5" d="M222.2,54.59l-.2-.05h-.22a1.23,1.23,0,0,0-1.07.57,2.53,2.53,0,0,0-.39,1.45v2.84h-.95V53.78h.95v1.11h0a1.8,1.8,0,0,1,.59-.9,1.41,1.41,0,0,1,.91-.31l.29,0,.22,0Z"/><path class="cls-5" d="M225.78,59.52a2.59,2.59,0,0,1-2-.79,2.89,2.89,0,0,1-.75-2.09,3,3,0,0,1,.77-2.2,2.83,2.83,0,0,1,2.1-.8,2.56,2.56,0,0,1,2,.78,3,3,0,0,1,.71,2.13,3,3,0,0,1-.76,2.16A2.68,2.68,0,0,1,225.78,59.52Zm.06-.79a1.62,1.62,0,0,0,1.32-.56,3,3,0,0,0,0-3.18,1.62,1.62,0,0,0-1.32-.55,1.66,1.66,0,0,0-1.34.58,2.35,2.35,0,0,0-.5,1.59,2.3,2.3,0,0,0,.5,1.56A1.71,1.71,0,0,0,225.84,58.73Z"/><path class="cls-5" d="M231,59.57a2.82,2.82,0,0,1-.48,1.83,1.78,1.78,0,0,1-1.44.57,2.73,2.73,0,0,1-.41,0,2.34,2.34,0,0,1-.4-.1l.21-.79.3.09a1.43,1.43,0,0,0,.29,0,.82.82,0,0,0,.76-.36,2.43,2.43,0,0,0,.22-1.18V53.78h1Zm-.46-7a.63.63,0,0,1-.47-.19.58.58,0,0,1-.19-.45.6.6,0,0,1,.19-.46.68.68,0,0,1,.94,0,.6.6,0,0,1,.19.46.58.58,0,0,1-.19.45A.63.63,0,0,1,230.56,52.59Z"/><path class="cls-5" d="M237.49,56.8h-4a2.12,2.12,0,0,0,.5,1.43,1.74,1.74,0,0,0,1.32.5,2.91,2.91,0,0,0,.76-.11,3.11,3.11,0,0,0,.78-.38l.43.66a3.52,3.52,0,0,1-1,.47,3.71,3.71,0,0,1-1.08.15,2.59,2.59,0,0,1-2-.75,3,3,0,0,1-.72-2.12,3.2,3.2,0,0,1,.72-2.18,2.39,2.39,0,0,1,1.88-.83,2.11,2.11,0,0,1,1.71.72,2.93,2.93,0,0,1,.61,2Zm-1-.75a1.74,1.74,0,0,0-.37-1.2,1.24,1.24,0,0,0-1-.43,1.44,1.44,0,0,0-1.06.44,2,2,0,0,0-.54,1.19Z"/><path class="cls-5" d="M242.92,59a3.24,3.24,0,0,1-.81.37,3.32,3.32,0,0,1-.86.11,2.67,2.67,0,0,1-2-.74,2.73,2.73,0,0,1-.76-2.07,3.17,3.17,0,0,1,.77-2.22,2.71,2.71,0,0,1,2.12-.85,3.12,3.12,0,0,1,.82.11,3.32,3.32,0,0,1,.79.33l-.4.7a2.54,2.54,0,0,0-.6-.26,2.59,2.59,0,0,0-.63-.08,1.7,1.7,0,0,0-1.41.61,2.43,2.43,0,0,0-.49,1.56,2.21,2.21,0,0,0,.51,1.57,1.74,1.74,0,0,0,1.32.55,1.93,1.93,0,0,0,.57-.09,2.29,2.29,0,0,0,.6-.28Z"/><path class="cls-5" d="M247,59.32a3,3,0,0,1-.46.14,2.59,2.59,0,0,1-.51,0,1.43,1.43,0,0,1-1.08-.4,1.59,1.59,0,0,1-.39-1.17V54.57h-1v-.79h1V52.49l1-.3v1.59h1.4v.79h-1.4v3.26a1.13,1.13,0,0,0,.17.69.64.64,0,0,0,.51.21,1,1,0,0,0,.31,0,.88.88,0,0,0,.26-.09Z"/><path class="cls-5" d="M248.06,56.68V56H251v.73Z"/><path class="cls-5" d="M258.54,51.72l-2.83,7.67h-1.08l-2.76-7.67H253l2.07,6a1.68,1.68,0,0,1,.09.32c0,.12,0,.24.07.37h0a2.29,2.29,0,0,1,.07-.34,2.47,2.47,0,0,1,.11-.36l2.11-6Z"/><path class="cls-5" d="M263.47,56.8h-4a2.08,2.08,0,0,0,.5,1.43,1.73,1.73,0,0,0,1.32.5,2.84,2.84,0,0,0,.75-.11,3.11,3.11,0,0,0,.78-.38l.44.66a3.8,3.8,0,0,1-1,.47,3.71,3.71,0,0,1-1.08.15,2.62,2.62,0,0,1-2-.75,3.05,3.05,0,0,1-.72-2.12,3.2,3.2,0,0,1,.72-2.18,2.4,2.4,0,0,1,1.88-.83,2.14,2.14,0,0,1,1.72.72,3,3,0,0,1,.61,2Zm-1-.75a1.85,1.85,0,0,0-.37-1.2,1.25,1.25,0,0,0-1-.43,1.46,1.46,0,0,0-1.07.44,2,2,0,0,0-.53,1.19Z"/><path class="cls-5" d="M269.72,59a3,3,0,0,1-.76,2.24,2.9,2.9,0,0,1-2.12.75,4.58,4.58,0,0,1-1.08-.12,4.49,4.49,0,0,1-1-.35l.34-.73a4.92,4.92,0,0,0,.85.31,4.19,4.19,0,0,0,.89.09,1.88,1.88,0,0,0,1.42-.52,2.07,2.07,0,0,0,.52-1.54v-.66h0a2.15,2.15,0,0,1-.8.81,2.34,2.34,0,0,1-1.12.26,2.12,2.12,0,0,1-1.69-.75,3,3,0,0,1-.64-2,3.43,3.43,0,0,1,.71-2.25,2.28,2.28,0,0,1,1.86-.87,2.07,2.07,0,0,1,1,.23,1.87,1.87,0,0,1,.69.68h0v-.77h1Zm-1-2.13V56a1.6,1.6,0,0,0-.44-1.13,1.45,1.45,0,0,0-1.11-.47,1.56,1.56,0,0,0-1.28.56,2.65,2.65,0,0,0-.46,1.7,2.29,2.29,0,0,0,.43,1.5,1.47,1.47,0,0,0,1.19.53,1.55,1.55,0,0,0,1.21-.53A2,2,0,0,0,268.77,56.85Z"/><path class="cls-5" d="M275.61,59.39h-.95v-.88h0a2.17,2.17,0,0,1-.71.76,1.93,1.93,0,0,1-1,.25,1.78,1.78,0,0,1-1.28-.46,1.59,1.59,0,0,1-.48-1.21,1.61,1.61,0,0,1,.49-1.21,2.55,2.55,0,0,1,1.42-.6l1.59-.21V55.7a1.3,1.3,0,0,0-.32-1,1.24,1.24,0,0,0-.87-.3,2.29,2.29,0,0,0-.85.16,3,3,0,0,0-.78.5l-.52-.58a3.52,3.52,0,0,1,1-.65,3.27,3.27,0,0,1,1.19-.21,2.09,2.09,0,0,1,1.55.53,2.19,2.19,0,0,1,.52,1.59Zm-.94-2.29v-.54l-1.34.18a2.06,2.06,0,0,0-.92.31.83.83,0,0,0-.3.71,1,1,0,0,0,.28.74,1,1,0,0,0,.72.26,1.46,1.46,0,0,0,1.13-.47A1.67,1.67,0,0,0,274.67,57.1Z"/><path class="cls-5" d="M276.88,59l.44-.72a3.11,3.11,0,0,0,.7.36,2.15,2.15,0,0,0,.77.13,1.5,1.5,0,0,0,.86-.21.72.72,0,0,0,.29-.62.73.73,0,0,0-.26-.57,2.1,2.1,0,0,0-.82-.37,3,3,0,0,1-1.43-.67,1.41,1.41,0,0,1-.39-1,1.48,1.48,0,0,1,.54-1.17,2.18,2.18,0,0,1,1.47-.47,3,3,0,0,1,.85.12,2.86,2.86,0,0,1,.82.38l-.42.71a2.74,2.74,0,0,0-.67-.33,2.11,2.11,0,0,0-.61-.1,1.42,1.42,0,0,0-.81.2.7.7,0,0,0,0,1.13,3,3,0,0,0,.93.35,3,3,0,0,1,1.28.64,1.44,1.44,0,0,1,.43,1.09,1.54,1.54,0,0,1-.56,1.24,2.35,2.35,0,0,1-1.52.45,3.31,3.31,0,0,1-1-.14A3.08,3.08,0,0,1,276.88,59Z"/><path class="cls-5" d="M282.58,59.51a.66.66,0,0,1-.46-.19.61.61,0,0,1,0-.9.66.66,0,0,1,.46-.19.68.68,0,0,1,.47.19.63.63,0,0,1,0,.9A.68.68,0,0,1,282.58,59.51Z"/><path class="cls-5" d="M285.75,58.58h0v3.33h-1V53.78h1v1h0a2.21,2.21,0,0,1,.82-.84,2.27,2.27,0,0,1,1.12-.28,2,2,0,0,1,1.69.76,3.14,3.14,0,0,1,.61,2,3.44,3.44,0,0,1-.69,2.25,2.27,2.27,0,0,1-1.87.85,2,2,0,0,1-1-.23A2,2,0,0,1,285.75,58.58Zm0-2.26v.75a1.65,1.65,0,0,0,.45,1.18,1.58,1.58,0,0,0,2.38-.13A2.81,2.81,0,0,0,289,56.4a2.23,2.23,0,0,0-.42-1.44,1.41,1.41,0,0,0-1.15-.52,1.56,1.56,0,0,0-1.25.53A2,2,0,0,0,285.72,56.32Z"/><path class="cls-5" d="M291.46,59.39V51.28h1v8.11Z"/><path class="cls-5" d="M295.1,51.71V54.1h-.82V51.71Zm1.81,0V54.1h-.82V51.71Z"/><path class="cls-5" d="M301.28,59l.44-.72a3.11,3.11,0,0,0,.7.36,2.11,2.11,0,0,0,.77.13,1.44,1.44,0,0,0,.85-.21.7.7,0,0,0,.3-.62.73.73,0,0,0-.26-.57,2.17,2.17,0,0,0-.82-.37,3,3,0,0,1-1.43-.67,1.41,1.41,0,0,1-.39-1,1.5,1.5,0,0,1,.53-1.17,2.18,2.18,0,0,1,1.47-.47,3,3,0,0,1,.86.12,2.69,2.69,0,0,1,.81.38l-.41.71a2.74,2.74,0,0,0-.67-.33,2.16,2.16,0,0,0-.61-.1,1.44,1.44,0,0,0-.82.2.64.64,0,0,0-.28.57.63.63,0,0,0,.28.56,2.93,2.93,0,0,0,.92.35,3,3,0,0,1,1.29.64,1.48,1.48,0,0,1,.43,1.09,1.54,1.54,0,0,1-.56,1.24,2.38,2.38,0,0,1-1.53.45,3.2,3.2,0,0,1-1-.14A3.08,3.08,0,0,1,301.28,59Z"/><path class="cls-5" d="M311.18,56.8h-3.94a2.07,2.07,0,0,0,.49,1.43,1.76,1.76,0,0,0,1.33.5,2.9,2.9,0,0,0,.75-.11,3.11,3.11,0,0,0,.78-.38l.43.66a3.52,3.52,0,0,1-1,.47,3.61,3.61,0,0,1-1.08.15,2.6,2.6,0,0,1-2-.75,3,3,0,0,1-.72-2.12,3.2,3.2,0,0,1,.72-2.18,2.4,2.4,0,0,1,1.88-.83,2.1,2.1,0,0,1,1.71.72,2.93,2.93,0,0,1,.61,2Zm-.95-.75a1.8,1.8,0,0,0-.38-1.2,1.23,1.23,0,0,0-1-.43,1.46,1.46,0,0,0-1.07.44,2,2,0,0,0-.53,1.19Z"/><path class="cls-5" d="M315.42,54.59l-.2-.05H315a1.23,1.23,0,0,0-1.07.57,2.53,2.53,0,0,0-.39,1.45v2.84h-1V53.78h1v1.11h0a1.73,1.73,0,0,1,.58-.9,1.41,1.41,0,0,1,.91-.31l.29,0,.22,0Z"/><path class="cls-5" d="M321.12,53.78l-2.23,5.61h-.95l-2.12-5.61h1l1.4,4q.08.23.12.42a3.6,3.6,0,0,1,.08.37h0a2.57,2.57,0,0,1,.07-.4c0-.13.06-.25.1-.37l1.46-4.06Z"/><path class="cls-5" d="M326.7,56.8h-3.95a2.12,2.12,0,0,0,.5,1.43,1.73,1.73,0,0,0,1.32.5,2.91,2.91,0,0,0,.76-.11,3.11,3.11,0,0,0,.78-.38l.43.66a3.52,3.52,0,0,1-1,.47,3.71,3.71,0,0,1-1.08.15,2.59,2.59,0,0,1-2-.75,3,3,0,0,1-.72-2.12,3.11,3.11,0,0,1,.72-2.18,2.39,2.39,0,0,1,1.88-.83,2.13,2.13,0,0,1,1.71.72,2.93,2.93,0,0,1,.61,2Zm-1-.75a1.74,1.74,0,0,0-.37-1.2,1.24,1.24,0,0,0-1-.43,1.48,1.48,0,0,0-1.07.44,2,2,0,0,0-.53,1.19Z"/><path class="cls-5" d="M330.94,54.59l-.2-.05h-.22a1.23,1.23,0,0,0-1.07.57,2.53,2.53,0,0,0-.39,1.45v2.84h-.95V53.78h.95v1.11h0a1.74,1.74,0,0,1,.59-.9,1.39,1.39,0,0,1,.91-.31l.29,0,.22,0Z"/><path class="cls-5" d="M332.48,59.51a.66.66,0,0,1-.46-.19.63.63,0,0,1,0-.9.65.65,0,1,1,.46,1.09Z"/><path class="cls-5" d="M336.92,59.39l2.93-7.67h1l2.94,7.67h-1.09l-.74-2h-3.28l-.71,2Zm2.1-2.87h2.66l-1.2-3.3a1,1,0,0,1-.07-.21,2.37,2.37,0,0,0-.06-.31h0c0,.11,0,.2-.05.29a1.94,1.94,0,0,1-.07.22Z"/><path class="cls-5" d="M350.66,59.32a2.59,2.59,0,0,1-.45.14,2.76,2.76,0,0,1-.51,0,1.43,1.43,0,0,1-1.08-.4,1.59,1.59,0,0,1-.39-1.17V54.57h-1v-.79h1V52.49l1-.3v1.59h1.4v.79h-1.4v3.26a1.06,1.06,0,0,0,.17.69.61.61,0,0,0,.51.21,1.06,1.06,0,0,0,.31,0,.88.88,0,0,0,.26-.09Z"/><path class="cls-5" d="M354.24,59.52a2.63,2.63,0,0,1-2-.79,2.93,2.93,0,0,1-.74-2.09,3,3,0,0,1,.77-2.2,2.82,2.82,0,0,1,2.1-.8,2.56,2.56,0,0,1,2,.78,3.06,3.06,0,0,1,.71,2.13,3,3,0,0,1-.76,2.16A2.7,2.7,0,0,1,354.24,59.52Zm.06-.79a1.63,1.63,0,0,0,1.32-.56,2.46,2.46,0,0,0,.45-1.58,2.42,2.42,0,0,0-.46-1.6,1.59,1.59,0,0,0-1.31-.55A1.65,1.65,0,0,0,353,55a2.35,2.35,0,0,0-.5,1.59,2.3,2.3,0,0,0,.5,1.56A1.71,1.71,0,0,0,354.3,58.73Z"/><path class="cls-5" d="M360.91,59.52a2.59,2.59,0,0,1-2-.79,2.89,2.89,0,0,1-.75-2.09,3,3,0,0,1,.77-2.2,2.82,2.82,0,0,1,2.1-.8,2.56,2.56,0,0,1,2,.78,3,3,0,0,1,.71,2.13,3,3,0,0,1-.76,2.16A2.68,2.68,0,0,1,360.91,59.52Zm.06-.79a1.63,1.63,0,0,0,1.32-.56,2.46,2.46,0,0,0,.45-1.58,2.42,2.42,0,0,0-.46-1.6,1.59,1.59,0,0,0-1.31-.55,1.66,1.66,0,0,0-1.34.58,2.35,2.35,0,0,0-.5,1.59,2.3,2.3,0,0,0,.5,1.56A1.71,1.71,0,0,0,361,58.73Z"/><path class="cls-5" d="M365.2,59.39V51.28h.95v8.11Z"/><path class="cls-5" d="M367.51,59l.44-.72a3.11,3.11,0,0,0,.7.36,2.11,2.11,0,0,0,.77.13,1.44,1.44,0,0,0,.85-.21.7.7,0,0,0,.3-.62.73.73,0,0,0-.26-.57,2.17,2.17,0,0,0-.82-.37,3,3,0,0,1-1.43-.67,1.41,1.41,0,0,1-.39-1,1.5,1.5,0,0,1,.53-1.17,2.18,2.18,0,0,1,1.47-.47,3,3,0,0,1,.86.12,2.69,2.69,0,0,1,.81.38l-.41.71a2.74,2.74,0,0,0-.67-.33,2.16,2.16,0,0,0-.61-.1,1.44,1.44,0,0,0-.82.2.64.64,0,0,0-.28.57.63.63,0,0,0,.28.56,2.93,2.93,0,0,0,.92.35,3,3,0,0,1,1.29.64,1.48,1.48,0,0,1,.43,1.09,1.54,1.54,0,0,1-.56,1.24,2.38,2.38,0,0,1-1.53.45,3.25,3.25,0,0,1-1-.14A3.08,3.08,0,0,1,367.51,59Z"/><path class="cls-5" d="M378.61,59.32a2.59,2.59,0,0,1-.45.14,2.76,2.76,0,0,1-.51,0,1.43,1.43,0,0,1-1.08-.4,1.59,1.59,0,0,1-.39-1.17V54.57h-1v-.79h1V52.49l1-.3v1.59h1.4v.79h-1.4v3.26a1.06,1.06,0,0,0,.17.69.61.61,0,0,0,.51.21,1.06,1.06,0,0,0,.31,0,.88.88,0,0,0,.26-.09Z"/><path class="cls-5" d="M384.51,59.39h-.95V56.15a2.12,2.12,0,0,0-.32-1.29,1.12,1.12,0,0,0-1-.42,1.39,1.39,0,0,0-1.08.49,1.88,1.88,0,0,0-.44,1.28v3.18h-.95V51.28h.95V54.7h0a2.11,2.11,0,0,1,.78-.79,2.06,2.06,0,0,1,1.06-.27,1.71,1.71,0,0,1,1.42.58,2.6,2.6,0,0,1,.47,1.71Z"/><path class="cls-5" d="M390.28,59.39h-.94v-.88h0a2.17,2.17,0,0,1-.71.76,1.93,1.93,0,0,1-1,.25,1.78,1.78,0,0,1-1.28-.46,1.59,1.59,0,0,1-.48-1.21,1.61,1.61,0,0,1,.49-1.21,2.55,2.55,0,0,1,1.42-.6l1.59-.21V55.7a1.3,1.3,0,0,0-.32-1,1.24,1.24,0,0,0-.87-.3,2.29,2.29,0,0,0-.85.16,3,3,0,0,0-.78.5L386,54.5a3.52,3.52,0,0,1,1-.65,3.27,3.27,0,0,1,1.19-.21,2.09,2.09,0,0,1,1.55.53,2.19,2.19,0,0,1,.52,1.59Zm-.94-2.29v-.54l-1.34.18a2.1,2.1,0,0,0-.92.31.83.83,0,0,0-.3.71,1,1,0,0,0,.28.74,1,1,0,0,0,.72.26,1.46,1.46,0,0,0,1.13-.47A1.67,1.67,0,0,0,389.34,57.1Z"/><path class="cls-5" d="M394.8,59.32a3,3,0,0,1-.46.14,2.59,2.59,0,0,1-.51,0,1.43,1.43,0,0,1-1.08-.4,1.59,1.59,0,0,1-.39-1.17V54.57h-.95v-.79h.95V52.49l1-.3v1.59h1.4v.79h-1.4v3.26a1.13,1.13,0,0,0,.17.69.64.64,0,0,0,.52.21,1.1,1.1,0,0,0,.31,0,.81.81,0,0,0,.25-.09Z"/><path class="cls-5" d="M36.25,72.12l.44-.72a3,3,0,0,0,.71.36,2.29,2.29,0,0,0,.76.12,1.48,1.48,0,0,0,.86-.2.72.72,0,0,0,.29-.62.73.73,0,0,0-.26-.57,2,2,0,0,0-.81-.37,3.11,3.11,0,0,1-1.44-.67,1.43,1.43,0,0,1-.39-1A1.48,1.48,0,0,1,37,67.26a2.18,2.18,0,0,1,1.47-.47,3,3,0,0,1,.85.12,2.86,2.86,0,0,1,.82.38l-.42.71a2.58,2.58,0,0,0-.67-.33,1.81,1.81,0,0,0-.61-.1,1.42,1.42,0,0,0-.81.2.7.7,0,0,0,0,1.13,3.43,3.43,0,0,0,.93.35,3,3,0,0,1,1.28.64A1.42,1.42,0,0,1,40.21,71a1.5,1.5,0,0,1-.56,1.23,2.3,2.3,0,0,1-1.52.46,3.66,3.66,0,0,1-1-.14A3.21,3.21,0,0,1,36.25,72.12Z"/><path class="cls-5" d="M46.2,72.54h-1v-.9h0a1.92,1.92,0,0,1-.72.77,1.89,1.89,0,0,1-1,.26,1.83,1.83,0,0,1-1.5-.6,2.73,2.73,0,0,1-.5-1.79V66.93h.95v3.21a2.13,2.13,0,0,0,.33,1.3,1.19,1.19,0,0,0,1,.44,1.33,1.33,0,0,0,1.06-.48,1.8,1.8,0,0,0,.42-1.25V66.93h1Z"/><path class="cls-5" d="M49,71.73h0v3.33h-1V66.93h1v1h0a2.33,2.33,0,0,1,.82-.83A2.17,2.17,0,0,1,51,66.79a2,2,0,0,1,1.69.76,3.08,3.08,0,0,1,.61,2,3.44,3.44,0,0,1-.69,2.25,2.27,2.27,0,0,1-1.87.85,2,2,0,0,1-1-.23A2.12,2.12,0,0,1,49,71.73Zm0-2.26v.75a1.67,1.67,0,0,0,.45,1.18,1.57,1.57,0,0,0,2.38-.14,2.78,2.78,0,0,0,.46-1.71,2.27,2.27,0,0,0-.42-1.45,1.43,1.43,0,0,0-1.15-.52,1.57,1.57,0,0,0-1.25.54A2,2,0,0,0,49,69.47Z"/><path class="cls-5" d="M55.71,71.73h0v3.33h-.95V66.93h.95v1h0a2.25,2.25,0,0,1,.82-.83,2.14,2.14,0,0,1,1.12-.28,2,2,0,0,1,1.69.76,3.14,3.14,0,0,1,.61,2,3.44,3.44,0,0,1-.69,2.25,2.27,2.27,0,0,1-1.87.85,1.83,1.83,0,0,1-1.68-.94Zm0-2.26v.75a1.67,1.67,0,0,0,.45,1.18,1.57,1.57,0,0,0,2.38-.14A2.78,2.78,0,0,0,59,69.55a2.22,2.22,0,0,0-.43-1.45,1.41,1.41,0,0,0-1.15-.52,1.56,1.56,0,0,0-1.24.54A2,2,0,0,0,55.68,69.47Z"/><path class="cls-5" d="M63.8,72.67a2.62,2.62,0,0,1-2-.79,2.89,2.89,0,0,1-.75-2.09,3,3,0,0,1,.77-2.2,2.82,2.82,0,0,1,2.11-.8,2.55,2.55,0,0,1,2,.77,3.48,3.48,0,0,1-.05,4.3A2.68,2.68,0,0,1,63.8,72.67Zm.07-.79a1.6,1.6,0,0,0,1.31-.56,3,3,0,0,0,0-3.18,1.61,1.61,0,0,0-1.31-.56,1.7,1.7,0,0,0-1.35.58,2.39,2.39,0,0,0-.49,1.6,2.25,2.25,0,0,0,.49,1.55A1.71,1.71,0,0,0,63.87,71.88Z"/><path class="cls-5" d="M70.92,67.74l-.19,0-.22,0a1.23,1.23,0,0,0-1.07.58,2.53,2.53,0,0,0-.39,1.45v2.84h-1V66.93h1V68h0a1.79,1.79,0,0,1,.58-.9,1.44,1.44,0,0,1,.92-.31,1.19,1.19,0,0,1,.28,0l.22,0Z"/><path class="cls-5" d="M74.87,72.47a2.59,2.59,0,0,1-.45.14,2.78,2.78,0,0,1-.52,0,1.44,1.44,0,0,1-1.07-.4,1.6,1.6,0,0,1-.39-1.17V67.72h-1v-.79h1V65.64l1-.3v1.59h1.4v.79H73.4V71a1.06,1.06,0,0,0,.17.69.61.61,0,0,0,.51.21,1.06,1.06,0,0,0,.31,0,.88.88,0,0,0,.26-.09Z"/><path class="cls-5" d="M75.57,72.12,76,71.4a3.11,3.11,0,0,0,.7.36,2.39,2.39,0,0,0,.77.12,1.44,1.44,0,0,0,.85-.2.7.7,0,0,0,.3-.62.73.73,0,0,0-.26-.57,2.1,2.1,0,0,0-.82-.37,3.11,3.11,0,0,1-1.43-.67,1.43,1.43,0,0,1-.39-1,1.48,1.48,0,0,1,.54-1.17,2.16,2.16,0,0,1,1.47-.47,3,3,0,0,1,.85.12,2.69,2.69,0,0,1,.81.38L79,68a2.74,2.74,0,0,0-.67-.33,1.81,1.81,0,0,0-.61-.1,1.4,1.4,0,0,0-.81.2.65.65,0,0,0-.29.57.63.63,0,0,0,.28.56,3.3,3.3,0,0,0,.93.35,3,3,0,0,1,1.28.64A1.42,1.42,0,0,1,79.53,71,1.5,1.5,0,0,1,79,72.21a2.3,2.3,0,0,1-1.52.46,3.61,3.61,0,0,1-1-.14A3.08,3.08,0,0,1,75.57,72.12Z"/><path class="cls-5" d="M88,72.54H87v-.89h0a2.12,2.12,0,0,1-.72.76,1.84,1.84,0,0,1-1,.26A1.76,1.76,0,0,1,84,72.21,1.58,1.58,0,0,1,83.52,71,1.61,1.61,0,0,1,84,69.79a2.55,2.55,0,0,1,1.42-.6L87,69v-.12a1.26,1.26,0,0,0-.32-1,1.24,1.24,0,0,0-.87-.3,2.29,2.29,0,0,0-.85.16,2.78,2.78,0,0,0-.78.5l-.51-.58a3.17,3.17,0,0,1,1-.65,3.31,3.31,0,0,1,1.19-.21,2.08,2.08,0,0,1,1.55.53A2.16,2.16,0,0,1,88,68.91ZM87,70.25v-.54l-1.33.18a2.06,2.06,0,0,0-.92.31.8.8,0,0,0-.31.71.94.94,0,0,0,.29.73,1,1,0,0,0,.71.27,1.49,1.49,0,0,0,1.14-.47A1.71,1.71,0,0,0,87,70.25Z"/><path class="cls-5" d="M93.6,71.6a2.09,2.09,0,0,1-.79.8,2.21,2.21,0,0,1-1.12.27A2.09,2.09,0,0,1,90,71.92a3.08,3.08,0,0,1-.64-2.06,3.4,3.4,0,0,1,.7-2.23,2.32,2.32,0,0,1,1.87-.84,2,2,0,0,1,1,.23,1.65,1.65,0,0,1,.68.68h0V64.43h1v8.11h-1V71.6Zm-3.26-1.79a2.33,2.33,0,0,0,.44,1.52,1.44,1.44,0,0,0,1.19.55,1.48,1.48,0,0,0,1.2-.54A2,2,0,0,0,93.63,70v-.8a1.58,1.58,0,0,0-.45-1.14,1.46,1.46,0,0,0-1.11-.47,1.52,1.52,0,0,0-1.27.6A2.57,2.57,0,0,0,90.34,69.81Z"/><path class="cls-5" d="M104.46,72.54h-.95V69.31a2.34,2.34,0,0,0-.29-1.32,1.07,1.07,0,0,0-.94-.41,1.16,1.16,0,0,0-1,.52,1.92,1.92,0,0,0-.4,1.24v3.2h-1V69.21A2,2,0,0,0,99.66,68a1.12,1.12,0,0,0-.94-.41,1.18,1.18,0,0,0-1,.49,2,2,0,0,0-.38,1.27v3.2h-.95V66.93h.95v.88h0a2.08,2.08,0,0,1,.74-.76,2,2,0,0,1,1-.26,1.67,1.67,0,0,1,1,.32,1.64,1.64,0,0,1,.59.84,2.13,2.13,0,0,1,.77-.87,2.09,2.09,0,0,1,1.09-.29,1.68,1.68,0,0,1,1.39.57,2.68,2.68,0,0,1,.46,1.72Z"/><path class="cls-5" d="M106.69,65.74a.65.65,0,0,1-.48-.19.63.63,0,0,1-.18-.45.66.66,0,0,1,.18-.47.68.68,0,0,1,.48-.18.67.67,0,0,1,.47.18.63.63,0,0,1,.19.47.6.6,0,0,1-.19.45A.64.64,0,0,1,106.69,65.74Zm.46,6.8h-1V66.93h1Z"/><path class="cls-5" d="M113.77,72.54h-1v-3.2A2.25,2.25,0,0,0,112.5,68a1.11,1.11,0,0,0-1-.44,1.39,1.39,0,0,0-1.09.5,1.83,1.83,0,0,0-.43,1.25v3.21h-1V66.93h1v.93h0a2.14,2.14,0,0,1,.78-.8,2,2,0,0,1,1.06-.27,1.72,1.72,0,0,1,1.41.6,2.64,2.64,0,0,1,.48,1.71Z"/><path class="cls-5" d="M116,65.74a.64.64,0,0,1-.47-.19.63.63,0,0,1-.18-.45.66.66,0,0,1,.18-.47.67.67,0,0,1,.47-.18.68.68,0,0,1,.48.18.67.67,0,0,1,.19.47.64.64,0,0,1-.19.45A.65.65,0,0,1,116,65.74Zm.47,6.8h-.95V66.93h.95Z"/><path class="cls-5" d="M117.88,72.12l.44-.72a3.11,3.11,0,0,0,.7.36,2.35,2.35,0,0,0,.77.12,1.44,1.44,0,0,0,.85-.2.7.7,0,0,0,.3-.62.73.73,0,0,0-.26-.57,2.1,2.1,0,0,0-.82-.37,3.11,3.11,0,0,1-1.43-.67,1.43,1.43,0,0,1-.39-1,1.48,1.48,0,0,1,.54-1.17,2.13,2.13,0,0,1,1.46-.47,3,3,0,0,1,.86.12,2.69,2.69,0,0,1,.81.38l-.41.71a2.74,2.74,0,0,0-.67-.33,1.86,1.86,0,0,0-.61-.1,1.44,1.44,0,0,0-.82.2.67.67,0,0,0-.28.57.63.63,0,0,0,.28.56,3.21,3.21,0,0,0,.92.35,3,3,0,0,1,1.29.64,1.42,1.42,0,0,1,.43,1.09,1.5,1.5,0,0,1-.56,1.23,2.32,2.32,0,0,1-1.52.46,3.61,3.61,0,0,1-1-.14A3.08,3.08,0,0,1,117.88,72.12Z"/><path class="cls-5" d="M126,72.47a2.59,2.59,0,0,1-.45.14,2.78,2.78,0,0,1-.52,0,1.44,1.44,0,0,1-1.07-.4,1.6,1.6,0,0,1-.39-1.17V67.72h-1v-.79h1V65.64l1-.3v1.59h1.4v.79h-1.4V71a1.06,1.06,0,0,0,.17.69.61.61,0,0,0,.51.21,1.06,1.06,0,0,0,.31,0,.88.88,0,0,0,.26-.09Z"/><path class="cls-5" d="M130,67.74l-.2,0-.22,0a1.24,1.24,0,0,0-1.07.58,2.53,2.53,0,0,0-.39,1.45v2.84h-.95V66.93h.95V68h0a1.74,1.74,0,0,1,.59-.9,1.39,1.39,0,0,1,.91-.31,1.19,1.19,0,0,1,.28,0l.23,0Z"/><path class="cls-5" d="M135.24,72.54h-.94v-.89h0a2.12,2.12,0,0,1-.72.76,1.84,1.84,0,0,1-1,.26,1.76,1.76,0,0,1-1.27-.46A1.58,1.58,0,0,1,130.8,71a1.61,1.61,0,0,1,.49-1.21,2.55,2.55,0,0,1,1.42-.6L134.3,69v-.12a1.3,1.3,0,0,0-.32-1,1.24,1.24,0,0,0-.87-.3,2.29,2.29,0,0,0-.85.16,2.78,2.78,0,0,0-.78.5l-.52-.58a3.1,3.1,0,0,1,2.21-.86,2.08,2.08,0,0,1,1.55.53,2.16,2.16,0,0,1,.52,1.59Zm-.94-2.29v-.54l-1.33.18a2.1,2.1,0,0,0-.93.31.82.82,0,0,0-.3.71.94.94,0,0,0,.29.73,1,1,0,0,0,.71.27,1.46,1.46,0,0,0,1.13-.47A1.67,1.67,0,0,0,134.3,70.25Z"/><path class="cls-5" d="M139.76,72.47a2.69,2.69,0,0,1-.46.14,2.59,2.59,0,0,1-.51,0,1.46,1.46,0,0,1-1.08-.4,1.65,1.65,0,0,1-.38-1.17V67.72h-1v-.79h1V65.64l.95-.3v1.59h1.41v.79h-1.41V71a1.13,1.13,0,0,0,.17.69.64.64,0,0,0,.52.21,1.06,1.06,0,0,0,.31,0,1,1,0,0,0,.26-.09Z"/><path class="cls-5" d="M141.44,65.74a.61.61,0,0,1-.47-.19.6.6,0,0,1-.19-.45.63.63,0,0,1,.19-.47.7.7,0,0,1,.94,0,.63.63,0,0,1,.19.47.6.6,0,0,1-.19.45A.61.61,0,0,1,141.44,65.74Zm.47,6.8h-1V66.93h1Z"/><path class="cls-5" d="M146.2,72.67a2.61,2.61,0,0,1-2-.79,2.89,2.89,0,0,1-.75-2.09,3,3,0,0,1,.77-2.2,2.81,2.81,0,0,1,2.1-.8,2.56,2.56,0,0,1,2,.77,3.48,3.48,0,0,1-.05,4.3A2.68,2.68,0,0,1,146.2,72.67Zm.07-.79a1.61,1.61,0,0,0,1.31-.56,3,3,0,0,0,0-3.18,1.62,1.62,0,0,0-1.31-.56,1.7,1.7,0,0,0-1.35.58,2.39,2.39,0,0,0-.49,1.6,2.25,2.25,0,0,0,.49,1.55A1.7,1.7,0,0,0,146.27,71.88Z"/><path class="cls-5" d="M155.2,72.54h-.95v-3.2a2.25,2.25,0,0,0-.32-1.32,1.13,1.13,0,0,0-1-.44,1.39,1.39,0,0,0-1.09.5,1.83,1.83,0,0,0-.44,1.25v3.21h-.95V66.93h.95v.93h0a2.2,2.2,0,0,1,.77-.8,2.07,2.07,0,0,1,1.07-.27,1.69,1.69,0,0,1,1.4.6,2.58,2.58,0,0,1,.49,1.71Z"/><path class="cls-5" d="M167.09,66.93l-1.68,5.61h-1l-1.14-4c0-.1,0-.19-.05-.26a2.06,2.06,0,0,1,0-.26h0a1.87,1.87,0,0,1,0,.25l-.08.27-1.23,4h-1l-1.69-5.61h1l1.14,4.18c0,.06,0,.14.05.22l0,.29h0l0-.25a2.68,2.68,0,0,1,.07-.27l1.27-4.17h.87l1.14,4.19c0,.06,0,.14.05.22s0,.19,0,.29h0a1.12,1.12,0,0,1,0-.24,1.68,1.68,0,0,1,.06-.27l1.11-4.19Z"/><path class="cls-5" d="M170.57,72.67a2.61,2.61,0,0,1-2-.79,2.89,2.89,0,0,1-.75-2.09,3,3,0,0,1,.77-2.2,2.81,2.81,0,0,1,2.1-.8,2.56,2.56,0,0,1,2,.77,3.48,3.48,0,0,1,0,4.3A2.68,2.68,0,0,1,170.57,72.67Zm.07-.79a1.61,1.61,0,0,0,1.31-.56,3,3,0,0,0,0-3.18,1.62,1.62,0,0,0-1.31-.56,1.7,1.7,0,0,0-1.35.58,2.39,2.39,0,0,0-.49,1.6,2.25,2.25,0,0,0,.49,1.55A1.7,1.7,0,0,0,170.64,71.88Z"/><path class="cls-5" d="M177.69,67.74l-.19,0-.22,0a1.23,1.23,0,0,0-1.07.58,2.53,2.53,0,0,0-.4,1.45v2.84h-.95V66.93h.95V68h0a1.73,1.73,0,0,1,.58-.9,1.41,1.41,0,0,1,.91-.31,1.28,1.28,0,0,1,.29,0l.22,0Z"/><path class="cls-5" d="M183.6,72.54h-1.31l-2.42-2.71h0v2.71h-1V64.43h1V69.5h0l2.3-2.57h1.23l-2.55,2.7Z"/><path class="cls-5" d="M185.45,71.31l-.84,2.63h-.69l.62-2.63Z"/><path class="cls-5" d="M198.15,72.54h-1V69.31a2.35,2.35,0,0,0-.28-1.32,1.07,1.07,0,0,0-.95-.41,1.18,1.18,0,0,0-1,.52,2,2,0,0,0-.39,1.24v3.2h-1V69.21a2,2,0,0,0-.31-1.22,1.13,1.13,0,0,0-.94-.41,1.18,1.18,0,0,0-1,.49,2,2,0,0,0-.38,1.27v3.2h-.95V66.93h.95v.88h0a2.08,2.08,0,0,1,.74-.76,2,2,0,0,1,1-.26,1.62,1.62,0,0,1,1,.32,1.58,1.58,0,0,1,.59.84,2.22,2.22,0,0,1,.78-.87,2.06,2.06,0,0,1,1.09-.29,1.7,1.7,0,0,1,1.39.57,2.68,2.68,0,0,1,.46,1.72Z"/><path class="cls-5" d="M202.27,72.67a2.63,2.63,0,0,1-2-.79,2.93,2.93,0,0,1-.74-2.09,3,3,0,0,1,.77-2.2,2.78,2.78,0,0,1,2.1-.8,2.59,2.59,0,0,1,2,.77,3.09,3.09,0,0,1,.71,2.14,3,3,0,0,1-.76,2.16A2.7,2.7,0,0,1,202.27,72.67Zm.06-.79a1.6,1.6,0,0,0,1.31-.56,3,3,0,0,0,0-3.18,1.61,1.61,0,0,0-1.31-.56,1.68,1.68,0,0,0-1.34.58,2.39,2.39,0,0,0-.5,1.6,2.26,2.26,0,0,0,.5,1.55A1.69,1.69,0,0,0,202.33,71.88Z"/><path class="cls-5" d="M210.43,71.6a2.17,2.17,0,0,1-.79.8,2.24,2.24,0,0,1-1.12.27,2.12,2.12,0,0,1-1.7-.75,3.13,3.13,0,0,1-.63-2.06,3.35,3.35,0,0,1,.7-2.23,2.32,2.32,0,0,1,1.87-.84,2.07,2.07,0,0,1,1,.23,1.65,1.65,0,0,1,.68.68h0V64.43h1v8.11h-1V71.6Zm-3.27-1.79a2.33,2.33,0,0,0,.45,1.52,1.42,1.42,0,0,0,1.18.55,1.52,1.52,0,0,0,1.21-.54,2,2,0,0,0,.45-1.35v-.8a1.57,1.57,0,0,0-.44-1.14,1.46,1.46,0,0,0-1.11-.47,1.5,1.5,0,0,0-1.27.6A2.57,2.57,0,0,0,207.16,69.81Z"/><path class="cls-5" d="M217.81,70h-3.95a2.08,2.08,0,0,0,.5,1.43,1.73,1.73,0,0,0,1.32.5,2.56,2.56,0,0,0,.76-.12,2.76,2.76,0,0,0,.78-.37l.43.66a4,4,0,0,1-1,.47,3.71,3.71,0,0,1-1.08.15,2.59,2.59,0,0,1-2-.76,3,3,0,0,1-.71-2.11,3.11,3.11,0,0,1,.72-2.18,2.39,2.39,0,0,1,1.88-.83,2.13,2.13,0,0,1,1.71.72,2.91,2.91,0,0,1,.61,2Zm-1-.75a1.79,1.79,0,0,0-.37-1.2,1.24,1.24,0,0,0-1-.43,1.43,1.43,0,0,0-1.07.44,2,2,0,0,0-.53,1.19Z"/><path class="cls-5" d="M222.05,67.74l-.2,0-.22,0a1.24,1.24,0,0,0-1.07.58,2.53,2.53,0,0,0-.39,1.45v2.84h-.95V66.93h.95V68h0a1.74,1.74,0,0,1,.59-.9,1.39,1.39,0,0,1,.91-.31,1.19,1.19,0,0,1,.28,0l.23,0Z"/><path class="cls-5" d="M227.28,72.54h-.94v-.89h0a2.12,2.12,0,0,1-.72.76,1.84,1.84,0,0,1-1,.26,1.76,1.76,0,0,1-1.27-.46,1.58,1.58,0,0,1-.49-1.21,1.61,1.61,0,0,1,.49-1.21,2.55,2.55,0,0,1,1.42-.6l1.59-.22v-.12a1.3,1.3,0,0,0-.32-1,1.24,1.24,0,0,0-.87-.3,2.29,2.29,0,0,0-.85.16,2.78,2.78,0,0,0-.78.5l-.52-.58a3.1,3.1,0,0,1,2.21-.86,2.08,2.08,0,0,1,1.55.53,2.16,2.16,0,0,1,.52,1.59Zm-.94-2.29v-.54l-1.33.18a2.1,2.1,0,0,0-.93.31.82.82,0,0,0-.3.71.94.94,0,0,0,.29.73,1,1,0,0,0,.71.27,1.46,1.46,0,0,0,1.13-.47A1.67,1.67,0,0,0,226.34,70.25Z"/><path class="cls-5" d="M231.8,72.47a2.69,2.69,0,0,1-.46.14,2.59,2.59,0,0,1-.51,0,1.46,1.46,0,0,1-1.08-.4,1.65,1.65,0,0,1-.38-1.17V67.72h-1v-.79h1V65.64l.95-.3v1.59h1.41v.79h-1.41V71a1.13,1.13,0,0,0,.17.69.64.64,0,0,0,.52.21,1.06,1.06,0,0,0,.31,0,1,1,0,0,0,.26-.09Z"/><path class="cls-5" d="M233.48,65.74a.61.61,0,0,1-.47-.19.6.6,0,0,1-.19-.45.63.63,0,0,1,.19-.47.7.7,0,0,1,.94,0,.63.63,0,0,1,.19.47.6.6,0,0,1-.19.45A.61.61,0,0,1,233.48,65.74Zm.47,6.8h-1V66.93h1Z"/><path class="cls-5" d="M238.24,72.67a2.61,2.61,0,0,1-2-.79,2.89,2.89,0,0,1-.75-2.09,3,3,0,0,1,.77-2.2,2.81,2.81,0,0,1,2.1-.8,2.56,2.56,0,0,1,2,.77,3.48,3.48,0,0,1-.05,4.3A2.68,2.68,0,0,1,238.24,72.67Zm.07-.79a1.61,1.61,0,0,0,1.31-.56,3,3,0,0,0,0-3.18,1.62,1.62,0,0,0-1.31-.56,1.7,1.7,0,0,0-1.35.58,2.39,2.39,0,0,0-.49,1.6,2.25,2.25,0,0,0,.49,1.55A1.7,1.7,0,0,0,238.31,71.88Z"/><path class="cls-5" d="M247.24,72.54h-1v-3.2A2.25,2.25,0,0,0,246,68a1.13,1.13,0,0,0-1-.44,1.39,1.39,0,0,0-1.09.5,1.83,1.83,0,0,0-.44,1.25v3.21h-.95V66.93h.95v.93h0a2.2,2.2,0,0,1,.77-.8,2.07,2.07,0,0,1,1.07-.27,1.69,1.69,0,0,1,1.4.6,2.58,2.58,0,0,1,.49,1.71Z"/><path class="cls-5" d="M254.73,72.47a3,3,0,0,1-.46.14,2.59,2.59,0,0,1-.51,0,1.46,1.46,0,0,1-1.08-.4,1.6,1.6,0,0,1-.39-1.17V67.72h-1v-.79h1V65.64l1-.3v1.59h1.4v.79h-1.4V71a1.13,1.13,0,0,0,.17.69.62.62,0,0,0,.51.21,1.06,1.06,0,0,0,.31,0,.88.88,0,0,0,.26-.09Z"/><path class="cls-5" d="M260.47,70h-4a2.12,2.12,0,0,0,.5,1.43,1.73,1.73,0,0,0,1.32.5,2.56,2.56,0,0,0,.76-.12,2.76,2.76,0,0,0,.78-.37l.43.66a3.82,3.82,0,0,1-1,.47,3.71,3.71,0,0,1-1.08.15,2.56,2.56,0,0,1-2-.76,2.93,2.93,0,0,1-.72-2.11,3.2,3.2,0,0,1,.72-2.18,2.39,2.39,0,0,1,1.88-.83,2.13,2.13,0,0,1,1.71.72,2.91,2.91,0,0,1,.61,2Zm-1-.75a1.74,1.74,0,0,0-.37-1.2,1.24,1.24,0,0,0-1-.43,1.4,1.4,0,0,0-1.06.44,2,2,0,0,0-.54,1.19Z"/><path class="cls-5" d="M265.92,72.54H265v-.89h0a2,2,0,0,1-.72.76,1.79,1.79,0,0,1-1,.26,1.76,1.76,0,0,1-1.28-.46,1.58,1.58,0,0,1-.49-1.21,1.64,1.64,0,0,1,.49-1.21,2.55,2.55,0,0,1,1.42-.6L265,69v-.12a1.26,1.26,0,0,0-.33-1,1.21,1.21,0,0,0-.87-.3,2.2,2.2,0,0,0-.84.16,2.53,2.53,0,0,0-.78.5l-.52-.58a3.21,3.21,0,0,1,1-.65,3.27,3.27,0,0,1,1.19-.21,2.11,2.11,0,0,1,1.55.53,2.2,2.2,0,0,1,.52,1.59ZM265,70.25v-.54l-1.34.18a2.06,2.06,0,0,0-.92.31.83.83,0,0,0-.31.71.94.94,0,0,0,.29.73,1,1,0,0,0,.71.27,1.49,1.49,0,0,0,1.14-.47A1.72,1.72,0,0,0,265,70.25Z"/><path class="cls-5" d="M275.72,72.54h-1V69.31a2.35,2.35,0,0,0-.28-1.32,1.09,1.09,0,0,0-1-.41,1.16,1.16,0,0,0-1,.52,2,2,0,0,0-.39,1.24v3.2h-.95V69.21a2,2,0,0,0-.32-1.22,1.12,1.12,0,0,0-.94-.41,1.18,1.18,0,0,0-1,.49,2,2,0,0,0-.37,1.27v3.2h-1V66.93h1v.88h0a2,2,0,0,1,.74-.76,2,2,0,0,1,1-.26A1.63,1.63,0,0,1,272,68a2.22,2.22,0,0,1,.78-.87,2,2,0,0,1,1.08-.29,1.68,1.68,0,0,1,1.39.57,2.67,2.67,0,0,1,.47,1.72Z"/><path class="cls-5" d="M284.49,72.54h-.94v-.89h0a2.12,2.12,0,0,1-.72.76,1.84,1.84,0,0,1-1,.26,1.8,1.8,0,0,1-1.28-.46,1.75,1.75,0,0,1,0-2.42,2.55,2.55,0,0,1,1.42-.6l1.59-.22v-.12a1.3,1.3,0,0,0-.32-1,1.24,1.24,0,0,0-.87-.3,2.29,2.29,0,0,0-.85.16,2.78,2.78,0,0,0-.78.5l-.52-.58a3.32,3.32,0,0,1,1-.65,3.27,3.27,0,0,1,1.19-.21,2.09,2.09,0,0,1,1.55.53,2.16,2.16,0,0,1,.52,1.59Zm-.94-2.29v-.54l-1.34.18a2.1,2.1,0,0,0-.92.31.82.82,0,0,0-.3.71.91.91,0,0,0,.29.73,1,1,0,0,0,.71.27,1.46,1.46,0,0,0,1.13-.47A1.67,1.67,0,0,0,283.55,70.25Z"/><path class="cls-5" d="M291,72.54h-1v-3.2a2.17,2.17,0,0,0-.33-1.32,1.1,1.1,0,0,0-.95-.44,1.38,1.38,0,0,0-1.09.5,1.83,1.83,0,0,0-.44,1.25v3.21h-.95V66.93h.95v.93h0a2.14,2.14,0,0,1,.78-.8,2.06,2.06,0,0,1,1.06-.27,1.7,1.7,0,0,1,1.41.6A2.58,2.58,0,0,1,291,69.1Z"/><path class="cls-5" d="M296.57,71.6a2.14,2.14,0,0,1-.78.8,2.28,2.28,0,0,1-1.13.27,2.09,2.09,0,0,1-1.69-.75,3.08,3.08,0,0,1-.64-2.06,3.4,3.4,0,0,1,.7-2.23,2.32,2.32,0,0,1,1.87-.84,2.08,2.08,0,0,1,1,.23,1.69,1.69,0,0,1,.67.68h0V64.43h.95v8.11h-.95V71.6Zm-3.26-1.79a2.33,2.33,0,0,0,.44,1.52,1.44,1.44,0,0,0,1.19.55,1.48,1.48,0,0,0,1.2-.54A2,2,0,0,0,296.6,70v-.8a1.58,1.58,0,0,0-.45-1.14,1.46,1.46,0,0,0-1.11-.47,1.52,1.52,0,0,0-1.27.6A2.57,2.57,0,0,0,293.31,69.81Z"/><path class="cls-5" d="M306.44,72.54h-.95v-.89h0a2,2,0,0,1-.72.76,2,2,0,0,1-2.27-.2,1.73,1.73,0,0,1,0-2.42,2.52,2.52,0,0,1,1.41-.6l1.6-.22v-.12a1.26,1.26,0,0,0-.33-1,1.2,1.2,0,0,0-.86-.3,2.25,2.25,0,0,0-.85.16,2.65,2.65,0,0,0-.78.5l-.52-.58a3.32,3.32,0,0,1,1-.65,3.27,3.27,0,0,1,1.19-.21,2.11,2.11,0,0,1,1.55.53,2.16,2.16,0,0,1,.52,1.59Zm-.94-2.29v-.54l-1.34.18a2.06,2.06,0,0,0-.92.31.82.82,0,0,0-.3.71.94.94,0,0,0,.28.73,1,1,0,0,0,.72.27,1.46,1.46,0,0,0,1.13-.47A1.67,1.67,0,0,0,305.5,70.25Z"/><path class="cls-5" d="M312.8,72.54h-.95v-.9h0a1.92,1.92,0,0,1-.72.77,1.89,1.89,0,0,1-1,.26,1.83,1.83,0,0,1-1.5-.6,2.68,2.68,0,0,1-.5-1.79V66.93h1v3.21a2.13,2.13,0,0,0,.33,1.3,1.19,1.19,0,0,0,1,.44,1.33,1.33,0,0,0,1.06-.48,1.8,1.8,0,0,0,.42-1.25V66.93h.95Z"/><path class="cls-5" d="M317.4,72.47a3,3,0,0,1-.46.14,2.59,2.59,0,0,1-.51,0,1.46,1.46,0,0,1-1.08-.4,1.6,1.6,0,0,1-.39-1.17V67.72H314v-.79H315V65.64l1-.3v1.59h1.4v.79h-1.4V71a1.13,1.13,0,0,0,.17.69.64.64,0,0,0,.52.21,1.1,1.1,0,0,0,.31,0,.81.81,0,0,0,.25-.09Z"/><path class="cls-5" d="M321,72.67a2.59,2.59,0,0,1-2-.79,2.89,2.89,0,0,1-.75-2.09,3,3,0,0,1,.77-2.2,2.8,2.8,0,0,1,2.1-.8,2.58,2.58,0,0,1,2,.77,3.48,3.48,0,0,1-.05,4.3A2.68,2.68,0,0,1,321,72.67Zm.07-.79a1.61,1.61,0,0,0,1.31-.56,3,3,0,0,0,0-3.18,1.62,1.62,0,0,0-1.31-.56,1.7,1.7,0,0,0-1.35.58,2.39,2.39,0,0,0-.5,1.6,2.26,2.26,0,0,0,.5,1.55A1.7,1.7,0,0,0,321,71.88Z"/><path class="cls-5" d="M333.3,72.54h-1V69.31a2.35,2.35,0,0,0-.28-1.32,1.09,1.09,0,0,0-.95-.41,1.16,1.16,0,0,0-1,.52,2,2,0,0,0-.39,1.24v3.2h-1V69.21a2,2,0,0,0-.31-1.22,1.12,1.12,0,0,0-.94-.41,1.18,1.18,0,0,0-1,.49,2,2,0,0,0-.38,1.27v3.2h-.95V66.93h.95v.88h0a2.06,2.06,0,0,1,.73-.76,2,2,0,0,1,1-.26A1.63,1.63,0,0,1,329.58,68a2.22,2.22,0,0,1,.78-.87,2,2,0,0,1,1.08-.29,1.68,1.68,0,0,1,1.39.57,2.67,2.67,0,0,1,.47,1.72Z"/><path class="cls-5" d="M339.07,72.54h-.95v-.89h0a2,2,0,0,1-.71.76,1.84,1.84,0,0,1-1,.26,1.78,1.78,0,0,1-1.28-.46,1.73,1.73,0,0,1,0-2.42,2.55,2.55,0,0,1,1.42-.6l1.59-.22v-.12a1.3,1.3,0,0,0-.32-1,1.24,1.24,0,0,0-.87-.3,2.29,2.29,0,0,0-.85.16,2.78,2.78,0,0,0-.78.5l-.52-.58a3.32,3.32,0,0,1,1-.65,3.27,3.27,0,0,1,1.19-.21,2.09,2.09,0,0,1,1.55.53,2.16,2.16,0,0,1,.52,1.59Zm-.94-2.29v-.54l-1.34.18a2.06,2.06,0,0,0-.92.31.82.82,0,0,0-.3.71.94.94,0,0,0,.28.73,1,1,0,0,0,.72.27,1.46,1.46,0,0,0,1.13-.47A1.67,1.67,0,0,0,338.13,70.25Z"/><path class="cls-5" d="M343.59,72.47a3,3,0,0,1-.46.14,2.59,2.59,0,0,1-.51,0,1.46,1.46,0,0,1-1.08-.4,1.6,1.6,0,0,1-.39-1.17V67.72h-1v-.79h1V65.64l1-.3v1.59h1.4v.79h-1.4V71a1.13,1.13,0,0,0,.17.69.64.64,0,0,0,.51.21,1,1,0,0,0,.31,0,.79.79,0,0,0,.26-.09Z"/><path class="cls-5" d="M349.33,70h-3.95a2.12,2.12,0,0,0,.5,1.43,1.76,1.76,0,0,0,1.32.5,2.56,2.56,0,0,0,.76-.12,2.76,2.76,0,0,0,.78-.37l.43.66a3.82,3.82,0,0,1-1,.47,3.71,3.71,0,0,1-1.08.15,2.56,2.56,0,0,1-2-.76,2.93,2.93,0,0,1-.72-2.11,3.2,3.2,0,0,1,.72-2.18,2.39,2.39,0,0,1,1.88-.83,2.1,2.1,0,0,1,1.71.72,2.91,2.91,0,0,1,.61,2Zm-.95-.75A1.8,1.8,0,0,0,348,68a1.24,1.24,0,0,0-1-.43,1.4,1.4,0,0,0-1.06.44,2,2,0,0,0-.53,1.19Z"/><path class="cls-5" d="M350.24,72.12l.45-.72a2.74,2.74,0,0,0,.7.36,2.29,2.29,0,0,0,.76.12,1.48,1.48,0,0,0,.86-.2.72.72,0,0,0,.29-.62.7.7,0,0,0-.26-.57,2,2,0,0,0-.81-.37,3.11,3.11,0,0,1-1.44-.67,1.43,1.43,0,0,1-.39-1,1.48,1.48,0,0,1,.54-1.17,2.18,2.18,0,0,1,1.47-.47,3,3,0,0,1,.85.12,2.86,2.86,0,0,1,.82.38l-.41.71a2.79,2.79,0,0,0-.68-.33,1.81,1.81,0,0,0-.61-.1,1.42,1.42,0,0,0-.81.2.72.72,0,0,0,0,1.13,3.43,3.43,0,0,0,.93.35,3.11,3.11,0,0,1,1.29.64A1.45,1.45,0,0,1,354.2,71a1.5,1.5,0,0,1-.56,1.23,2.3,2.3,0,0,1-1.52.46,3.66,3.66,0,0,1-1-.14A3.21,3.21,0,0,1,350.24,72.12Z"/><path class="cls-5" d="M37.72,84.88h0v3.33h-1V80.07h1v1h0a2.25,2.25,0,0,1,.82-.83,2.19,2.19,0,0,1,1.12-.28,2,2,0,0,1,1.69.75,3.13,3.13,0,0,1,.61,2A3.44,3.44,0,0,1,41.27,85a2.27,2.27,0,0,1-1.87.85,1.9,1.9,0,0,1-1-.24A2,2,0,0,1,37.72,84.88Zm0-2.26v.75a1.66,1.66,0,0,0,.44,1.18,1.58,1.58,0,0,0,2.39-.14A2.85,2.85,0,0,0,41,82.7a2.26,2.26,0,0,0-.42-1.45,1.43,1.43,0,0,0-1.15-.52,1.58,1.58,0,0,0-1.25.54A2,2,0,0,0,37.7,82.62Z"/><path class="cls-5" d="M46.27,80.89l-.2,0-.22,0a1.24,1.24,0,0,0-1.07.58,2.53,2.53,0,0,0-.39,1.45v2.84h-1V80.07h1v1.12h0a1.74,1.74,0,0,1,.59-.9,1.39,1.39,0,0,1,.91-.31h.28l.23.05Z"/><path class="cls-5" d="M49.85,85.82a2.63,2.63,0,0,1-2-.79,2.9,2.9,0,0,1-.74-2.09,3,3,0,0,1,.77-2.2,2.78,2.78,0,0,1,2.1-.8,2.56,2.56,0,0,1,2,.77,3.07,3.07,0,0,1,.71,2.14A3,3,0,0,1,51.89,85,2.67,2.67,0,0,1,49.85,85.82Zm.06-.79a1.6,1.6,0,0,0,1.31-.56,3,3,0,0,0,0-3.18,1.61,1.61,0,0,0-1.31-.56,1.7,1.7,0,0,0-1.35.58,2.39,2.39,0,0,0-.49,1.6,2.21,2.21,0,0,0,.5,1.55A1.69,1.69,0,0,0,49.91,85Z"/><path class="cls-5" d="M58.15,85.33a3.07,3.07,0,0,1-.8.38,3.37,3.37,0,0,1-.86.11,2.69,2.69,0,0,1-2-.74A2.75,2.75,0,0,1,53.77,83a3.15,3.15,0,0,1,.77-2.23,2.74,2.74,0,0,1,2.12-.84,3.61,3.61,0,0,1,.82.1,3.55,3.55,0,0,1,.79.34l-.4.69a3,3,0,0,0-.6-.26,2.59,2.59,0,0,0-.63-.07,1.71,1.71,0,0,0-1.41.6,2.41,2.41,0,0,0-.49,1.56,2.24,2.24,0,0,0,.51,1.58,1.73,1.73,0,0,0,1.32.54,2,2,0,0,0,.57-.08,2.66,2.66,0,0,0,.6-.28Z"/><path class="cls-5" d="M64,83.1h-4a2.09,2.09,0,0,0,.5,1.43,1.73,1.73,0,0,0,1.32.5,2.61,2.61,0,0,0,.76-.12,2.85,2.85,0,0,0,.77-.37l.44.66a4,4,0,0,1-1,.47,3.71,3.71,0,0,1-1.08.15,2.59,2.59,0,0,1-2-.76A3,3,0,0,1,59.09,83a3.13,3.13,0,0,1,.71-2.18,2.42,2.42,0,0,1,1.89-.83,2.15,2.15,0,0,1,1.71.71,3,3,0,0,1,.61,2Zm-1-.75a1.84,1.84,0,0,0-.37-1.21,1.28,1.28,0,0,0-1-.42,1.43,1.43,0,0,0-1.07.44,2,2,0,0,0-.53,1.19Z"/><path class="cls-5" d="M64.92,85.27l.44-.72a3.11,3.11,0,0,0,.7.36,2.35,2.35,0,0,0,.77.12,1.44,1.44,0,0,0,.85-.2.71.71,0,0,0,.3-.62.73.73,0,0,0-.26-.57,2,2,0,0,0-.82-.37,3.11,3.11,0,0,1-1.43-.67,1.44,1.44,0,0,1-.39-1,1.5,1.5,0,0,1,.53-1.17,2.18,2.18,0,0,1,1.47-.47,3,3,0,0,1,.86.12,2.69,2.69,0,0,1,.81.38l-.41.7a3.73,3.73,0,0,0-.67-.33,2.15,2.15,0,0,0-.61-.09,1.44,1.44,0,0,0-.82.2.71.71,0,0,0,0,1.13,3.21,3.21,0,0,0,.92.35,2.88,2.88,0,0,1,1.29.64,1.46,1.46,0,0,1,.43,1.09,1.5,1.5,0,0,1-.56,1.23,2.33,2.33,0,0,1-1.53.46,3.59,3.59,0,0,1-1-.14A3.37,3.37,0,0,1,64.92,85.27Z"/><path class="cls-5" d="M69.77,85.27l.45-.72a2.91,2.91,0,0,0,.7.36,2.33,2.33,0,0,0,.76.12,1.48,1.48,0,0,0,.86-.2.7.7,0,0,0,.29-.62.72.72,0,0,0-.25-.57,2,2,0,0,0-.82-.37,3.06,3.06,0,0,1-1.43-.67,1.44,1.44,0,0,1-.39-1,1.47,1.47,0,0,1,.53-1.17,2.18,2.18,0,0,1,1.47-.47,2.91,2.91,0,0,1,.85.12,2.74,2.74,0,0,1,.82.38l-.41.7a3.78,3.78,0,0,0-.68-.33,2.1,2.1,0,0,0-.61-.09,1.42,1.42,0,0,0-.81.2.71.71,0,0,0,0,1.13,3.21,3.21,0,0,0,.92.35,2.94,2.94,0,0,1,1.29.64,1.45,1.45,0,0,1,.42,1.09,1.47,1.47,0,0,1-.56,1.23,2.3,2.3,0,0,1-1.52.46,3.66,3.66,0,0,1-1-.14A3.7,3.7,0,0,1,69.77,85.27Z"/><path class="cls-5" d="M79.68,83.1h-4a2.14,2.14,0,0,0,.5,1.43,1.76,1.76,0,0,0,1.32.5,2.56,2.56,0,0,0,.76-.12,2.76,2.76,0,0,0,.78-.37l.43.66a3.82,3.82,0,0,1-1,.47,3.66,3.66,0,0,1-1.08.15,2.56,2.56,0,0,1-2-.76A2.93,2.93,0,0,1,74.76,83a3.18,3.18,0,0,1,.72-2.18,2.39,2.39,0,0,1,1.88-.83,2.12,2.12,0,0,1,1.71.71,3,3,0,0,1,.61,2Zm-1-.75a1.84,1.84,0,0,0-.38-1.21,1.26,1.26,0,0,0-1-.42,1.41,1.41,0,0,0-1.07.44,2,2,0,0,0-.53,1.19Z"/><path class="cls-5" d="M80.59,85.27l.45-.72a2.91,2.91,0,0,0,.7.36,2.29,2.29,0,0,0,.76.12,1.48,1.48,0,0,0,.86-.2.73.73,0,0,0,.29-.62.7.7,0,0,0-.26-.57,1.91,1.91,0,0,0-.81-.37,3.11,3.11,0,0,1-1.44-.67,1.44,1.44,0,0,1-.39-1,1.48,1.48,0,0,1,.54-1.17,2.18,2.18,0,0,1,1.47-.47,3,3,0,0,1,.85.12,2.86,2.86,0,0,1,.82.38l-.41.7a3.78,3.78,0,0,0-.68-.33,2.1,2.1,0,0,0-.61-.09,1.42,1.42,0,0,0-.81.2.64.64,0,0,0-.28.57.65.65,0,0,0,.27.56,3.43,3.43,0,0,0,.93.35,3,3,0,0,1,1.29.64,1.45,1.45,0,0,1,.42,1.09A1.47,1.47,0,0,1,84,85.36a2.3,2.3,0,0,1-1.52.46,3.66,3.66,0,0,1-1-.14A3.53,3.53,0,0,1,80.59,85.27Z"/><path class="cls-5" d="M86.3,85.8a.66.66,0,0,1-.47-.18.61.61,0,0,1-.19-.45.58.58,0,0,1,.19-.45.63.63,0,0,1,.47-.19.62.62,0,0,1,.46.19.58.58,0,0,1,.19.45.61.61,0,0,1-.19.45A.65.65,0,0,1,86.3,85.8Z"/><path class="cls-5" d="M321.4,42.72a2,2,0,0,1-.6.28,2.2,2.2,0,0,1-.64.09A1.95,1.95,0,0,1,318.11,41a2.41,2.41,0,0,1,.58-1.67,2.06,2.06,0,0,1,1.59-.63,2.51,2.51,0,0,1,.62.08,2.27,2.27,0,0,1,.59.25l-.3.52a1.45,1.45,0,0,0-.45-.19,1.84,1.84,0,0,0-.47-.06,1.3,1.3,0,0,0-1.06.45,1.86,1.86,0,0,0-.37,1.17,1.63,1.63,0,0,0,.39,1.18,1.26,1.26,0,0,0,1,.41,1.64,1.64,0,0,0,.42-.06,1.52,1.52,0,0,0,.45-.21Z"/><path class="cls-5" d="M324.5,39.39l-.15,0h-.16a.93.93,0,0,0-.8.43,1.87,1.87,0,0,0-.3,1.09V43h-.71V38.78h.71v.83h0a1.36,1.36,0,0,1,.44-.67,1,1,0,0,1,.68-.23h.22l.17,0Z"/><path class="cls-5" d="M328.82,41.05h-3a1.59,1.59,0,0,0,.38,1.07,1.28,1.28,0,0,0,1,.38,2,2,0,0,0,.57-.09,2.2,2.2,0,0,0,.58-.28l.33.49A3.15,3.15,0,0,1,328,43a2.88,2.88,0,0,1-.81.11,1.94,1.94,0,0,1-1.49-.57,2.31,2.31,0,0,1-.54-1.59,2.39,2.39,0,0,1,.54-1.63,1.83,1.83,0,0,1,1.42-.62,1.59,1.59,0,0,1,1.28.54,2.23,2.23,0,0,1,.46,1.49Zm-.72-.56a1.39,1.39,0,0,0-.28-.91,1,1,0,0,0-.76-.32,1.09,1.09,0,0,0-.8.33,1.5,1.5,0,0,0-.4.9Z"/><path class="cls-5" d="M332.9,43h-.71v-.66h0a1.65,1.65,0,0,1-.54.57,1.44,1.44,0,0,1-.75.19,1.37,1.37,0,0,1-1-.35,1.3,1.3,0,0,1,0-1.81,1.86,1.86,0,0,1,1.06-.45l1.2-.16v-.1a1,1,0,0,0-.25-.73.92.92,0,0,0-.65-.23,1.51,1.51,0,0,0-.63.13,1.88,1.88,0,0,0-.59.37l-.39-.43a2.28,2.28,0,0,1,.77-.49,2.31,2.31,0,0,1,.89-.16,1.54,1.54,0,0,1,1.16.4,1.62,1.62,0,0,1,.39,1.19Zm-.7-1.72v-.4l-1,.13a1.5,1.5,0,0,0-.69.24.61.61,0,0,0-.23.53.69.69,0,0,0,.22.55.76.76,0,0,0,.53.2,1.07,1.07,0,0,0,.85-.36A1.24,1.24,0,0,0,332.2,41.27Z"/><path class="cls-5" d="M336.29,42.94a1.54,1.54,0,0,1-.35.1,1.48,1.48,0,0,1-.38,0,1.09,1.09,0,0,1-.81-.3,1.23,1.23,0,0,1-.29-.88V39.37h-.72v-.59h.72v-1l.72-.23v1.19h1.05v.59h-1.05v2.45a.81.81,0,0,0,.13.52.47.47,0,0,0,.38.16,1,1,0,0,0,.24,0,.84.84,0,0,0,.19-.07Z"/><path class="cls-5" d="M340.6,41.05h-3a1.54,1.54,0,0,0,.37,1.07,1.31,1.31,0,0,0,1,.38,1.93,1.93,0,0,0,.57-.09,2.2,2.2,0,0,0,.58-.28l.33.49a3.15,3.15,0,0,1-.74.36,2.88,2.88,0,0,1-.81.11,2,2,0,0,1-1.49-.57,2.26,2.26,0,0,1-.53-1.59,2.3,2.3,0,0,1,.54-1.63,1.79,1.79,0,0,1,1.41-.62,1.58,1.58,0,0,1,1.28.54,2.18,2.18,0,0,1,.46,1.49Zm-.72-.56a1.39,1.39,0,0,0-.28-.91,1,1,0,0,0-.76-.32,1.09,1.09,0,0,0-.8.33,1.57,1.57,0,0,0-.4.9Z"/><path class="cls-5" d="M344.56,42.28a1.65,1.65,0,0,1-.59.61,1.75,1.75,0,0,1-.85.2,1.57,1.57,0,0,1-1.27-.57,2.29,2.29,0,0,1-.47-1.54,2.51,2.51,0,0,1,.52-1.67,1.73,1.73,0,0,1,1.4-.63,1.6,1.6,0,0,1,.75.17,1.25,1.25,0,0,1,.51.51h0V36.91h.72V43h-.72v-.71ZM342.11,41a1.75,1.75,0,0,0,.33,1.13,1.08,1.08,0,0,0,.89.42,1.1,1.1,0,0,0,.9-.41,1.47,1.47,0,0,0,.34-1v-.6a1.22,1.22,0,0,0-.33-.86,1.11,1.11,0,0,0-.83-.35,1.15,1.15,0,0,0-1,.45A2,2,0,0,0,342.11,41Z"/><path class="cls-5" d="M355,43h-.73V39.17c0-.16,0-.33,0-.52s0-.39,0-.61h0c0,.13-.06.25-.09.34a1.67,1.67,0,0,1-.08.24L352.18,43h-.4l-1.9-4.34a2.3,2.3,0,0,1-.09-.25q0-.15-.09-.36h0a3.23,3.23,0,0,1,0,.48c0,.2,0,.42,0,.68V43H349V37.24h1l1.71,3.95a4,4,0,0,1,.17.4,1.88,1.88,0,0,1,.09.3h0q.08-.24.15-.42c.05-.11.09-.21.12-.29L354,37.24H355Z"/><path class="cls-5" d="M359.46,43h-.71v-.66h0a1.54,1.54,0,0,1-.53.57,1.44,1.44,0,0,1-.75.19,1.33,1.33,0,0,1-1-.35,1.3,1.3,0,0,1,0-1.81,1.86,1.86,0,0,1,1.06-.45l1.19-.16v-.1a1,1,0,0,0-.24-.73.92.92,0,0,0-.65-.23,1.51,1.51,0,0,0-.63.13,1.77,1.77,0,0,0-.59.37l-.39-.43a2.28,2.28,0,0,1,.77-.49,2.31,2.31,0,0,1,.89-.16,1.54,1.54,0,0,1,1.16.4,1.62,1.62,0,0,1,.39,1.19Zm-.71-1.72v-.4l-1,.13a1.5,1.5,0,0,0-.69.24.61.61,0,0,0-.23.53.69.69,0,0,0,.22.55.76.76,0,0,0,.53.2,1.07,1.07,0,0,0,.85-.36A1.23,1.23,0,0,0,358.75,41.27Z"/><path class="cls-5" d="M364.2,38.78l-2,5a2,2,0,0,1-.59.89,1.3,1.3,0,0,1-.85.3h-.25l-.22-.05.14-.6a.42.42,0,0,0,.15,0l.14,0a.73.73,0,0,0,.45-.14,1,1,0,0,0,.29-.4l.34-.81-1.65-4.2H361L362.09,42a.86.86,0,0,1,0,.13,1.91,1.91,0,0,1,.06.21h0l0-.14c0-.05,0-.12.05-.19l1.17-3.2Z"/><path class="cls-5" d="M367.06,43v-.3a2.19,2.19,0,0,1,.09-.66,1.66,1.66,0,0,1,.27-.55,3.17,3.17,0,0,1,.48-.5c.2-.17.44-.35.72-.55a6.38,6.38,0,0,0,.51-.42,2.9,2.9,0,0,0,.34-.4,1.27,1.27,0,0,0,.18-.39,1.63,1.63,0,0,0,.06-.45,1,1,0,0,0-.27-.74.91.91,0,0,0-.73-.29,1.78,1.78,0,0,0-.71.15,2,2,0,0,0-.63.45l-.43-.42a2.59,2.59,0,0,1,.83-.59,2.48,2.48,0,0,1,1-.19,1.61,1.61,0,0,1,1.24.47,1.6,1.6,0,0,1,.43,1.09,2.2,2.2,0,0,1-.09.64,2.09,2.09,0,0,1-.25.52,3,3,0,0,1-.4.48c-.16.15-.35.3-.56.46l-.64.46a3,3,0,0,0-.4.36,1,1,0,0,0-.22.35.94.94,0,0,0-.07.39h2.83V43Z"/><path class="cls-5" d="M374.72,37.19V41h.62v.64h-.62V43H374V41.68h-2.7v-.62c.25-.28.5-.59.76-.91s.5-.66.74-1,.45-.67.64-1a9,9,0,0,0,.51-1ZM372.09,41H374V38.25c-.2.34-.38.65-.55.92s-.34.52-.5.74-.31.43-.46.61Z"/><path class="cls-5" d="M378.38,43v-.3a2.19,2.19,0,0,1,.09-.66,1.68,1.68,0,0,1,.28-.55,2.78,2.78,0,0,1,.48-.5c.2-.17.44-.35.71-.55a5.22,5.22,0,0,0,.52-.42,2.9,2.9,0,0,0,.34-.4,1.53,1.53,0,0,0,.17-.39,1.33,1.33,0,0,0,.07-.45,1,1,0,0,0-.27-.74.92.92,0,0,0-.73-.29,1.71,1.71,0,0,0-.71.15,1.93,1.93,0,0,0-.63.45l-.44-.42a2.74,2.74,0,0,1,.84-.59,2.43,2.43,0,0,1,1-.19,1.6,1.6,0,0,1,1.24.47,1.55,1.55,0,0,1,.43,1.09,2.2,2.2,0,0,1-.09.64,2.07,2.07,0,0,1-.24.52,2.61,2.61,0,0,1-.41.48,5.55,5.55,0,0,1-.55.46l-.64.46a3.16,3.16,0,0,0-.41.36,1.35,1.35,0,0,0-.22.35,1.14,1.14,0,0,0-.06.39H382V43Z"/><path class="cls-5" d="M384.6,43.09a1.53,1.53,0,0,1-1.36-.74,3.92,3.92,0,0,1-.47-2.12,4.29,4.29,0,0,1,.5-2.3,1.59,1.59,0,0,1,1.44-.79,1.49,1.49,0,0,1,1.38.74,4.3,4.3,0,0,1,.45,2.21,4,4,0,0,1-.51,2.22A1.61,1.61,0,0,1,384.6,43.09Zm.08-5.35a1,1,0,0,0-.89.61,4.6,4.6,0,0,0-.29,1.85,4,4,0,0,0,.29,1.71.92.92,0,0,0,.87.58.91.91,0,0,0,.86-.59,4.13,4.13,0,0,0,.29-1.75,4.58,4.58,0,0,0-.28-1.81A.91.91,0,0,0,384.68,37.74Z"/><path class="cls-5" d="M387.46,43v-.3a2.19,2.19,0,0,1,.09-.66,1.68,1.68,0,0,1,.28-.55,2.78,2.78,0,0,1,.48-.5,8.52,8.52,0,0,1,.71-.55,5,5,0,0,0,.51-.42,2.34,2.34,0,0,0,.34-.4,1.27,1.27,0,0,0,.18-.39,1.63,1.63,0,0,0,.06-.45,1.08,1.08,0,0,0-.26-.74.92.92,0,0,0-.73-.29,1.71,1.71,0,0,0-.71.15,2.08,2.08,0,0,0-.64.45l-.43-.42a2.7,2.7,0,0,1,.83-.59,2.48,2.48,0,0,1,1-.19,1.61,1.61,0,0,1,1.24.47,1.55,1.55,0,0,1,.43,1.09,2.2,2.2,0,0,1-.09.64,1.79,1.79,0,0,1-.25.52,2.55,2.55,0,0,1-.4.48,7,7,0,0,1-.55.46l-.64.46a3.16,3.16,0,0,0-.41.36,1.06,1.06,0,0,0-.29.74H391V43Z"/><path class="cls-5" d="M392,43v-.3a2.19,2.19,0,0,1,.09-.66,1.88,1.88,0,0,1,.27-.55,3.7,3.7,0,0,1,.48-.5c.2-.17.44-.35.72-.55a6.38,6.38,0,0,0,.51-.42,2.9,2.9,0,0,0,.34-.4,1.27,1.27,0,0,0,.18-.39,1.63,1.63,0,0,0,.06-.45,1.08,1.08,0,0,0-.26-.74.92.92,0,0,0-.73-.29,1.79,1.79,0,0,0-.72.15,2.16,2.16,0,0,0-.63.45l-.43-.42a2.59,2.59,0,0,1,.83-.59,2.48,2.48,0,0,1,1-.19,1.61,1.61,0,0,1,1.24.47,1.6,1.6,0,0,1,.43,1.09,2.2,2.2,0,0,1-.09.64,2.09,2.09,0,0,1-.25.52,2.55,2.55,0,0,1-.4.48,5.76,5.76,0,0,1-.56.46l-.64.46a3,3,0,0,0-.4.36,1.13,1.13,0,0,0-.22.35.94.94,0,0,0-.07.39h2.83V43Z"/><circle class="cls-6" cx="41.53" cy="100.04" r="3.29"/><path class="cls-5" d="M54.19,101.58a2.64,2.64,0,0,1-.5,1.73,1.86,1.86,0,0,1-1.54.62,2.6,2.6,0,0,1-.5,0,2.33,2.33,0,0,1-.49-.12l.27-.82.35.09.33,0a1,1,0,0,0,.82-.33,1.79,1.79,0,0,0,.29-1.14V96.13h1Z"/><path class="cls-5" d="M60.14,103.8H59.2v-.88h0a2.2,2.2,0,0,1-.72.76,1.93,1.93,0,0,1-1,.26,1.8,1.8,0,0,1-1.27-.46,1.6,1.6,0,0,1-.49-1.22,1.57,1.57,0,0,1,.49-1.2,2.49,2.49,0,0,1,1.42-.61l1.59-.21v-.13a1.31,1.31,0,0,0-.32-1,1.24,1.24,0,0,0-.87-.3,2.3,2.3,0,0,0-.85.17,2.74,2.74,0,0,0-.78.49l-.52-.57a3.14,3.14,0,0,1,1-.65,3.31,3.31,0,0,1,1.19-.21,2.05,2.05,0,0,1,1.55.53,2.15,2.15,0,0,1,.52,1.58Zm-.94-2.29V101l-1.33.18a2.1,2.1,0,0,0-.93.31.83.83,0,0,0-.3.71,1,1,0,0,0,.29.74,1,1,0,0,0,.71.26,1.46,1.46,0,0,0,1.13-.47A1.67,1.67,0,0,0,59.2,101.51Z"/><path class="cls-5" d="M66.41,98.19l-2.23,5.61h-1l-2.12-5.61h1l1.4,4a4,4,0,0,1,.12.43,2.74,2.74,0,0,1,.08.37h0a2.5,2.5,0,0,1,.07-.41,2.12,2.12,0,0,1,.1-.36l1.46-4.07Z"/><path class="cls-5" d="M71.48,103.8h-1v-.88h0a2,2,0,0,1-.72.76,1.9,1.9,0,0,1-1,.26,1.81,1.81,0,0,1-1.28-.46,1.6,1.6,0,0,1-.49-1.22,1.57,1.57,0,0,1,.49-1.2,2.49,2.49,0,0,1,1.42-.61l1.59-.21v-.13a1.27,1.27,0,0,0-.32-1,1.21,1.21,0,0,0-.87-.3,2.21,2.21,0,0,0-.84.17,2.65,2.65,0,0,0-.79.49l-.51-.57a3,3,0,0,1,1-.65,3.23,3.23,0,0,1,1.19-.21,2,2,0,0,1,1.54.53,2.15,2.15,0,0,1,.53,1.58Zm-1-2.29V101l-1.33.18a2.06,2.06,0,0,0-.92.31.81.81,0,0,0-.31.71,1,1,0,0,0,.29.74,1,1,0,0,0,.71.26,1.49,1.49,0,0,0,1.14-.47A1.71,1.71,0,0,0,70.53,101.51Z"/><path class="cls-5" d="M72.74,103.2l.47-.74a3.45,3.45,0,0,0,1,.46,3.5,3.5,0,0,0,1.07.15,1.89,1.89,0,0,0,1.13-.32,1.22,1.22,0,0,0,.07-1.81,4,4,0,0,0-1.22-.62,4.54,4.54,0,0,1-1.63-.88,1.7,1.7,0,0,1-.52-1.31,1.93,1.93,0,0,1,.68-1.53,2.65,2.65,0,0,1,1.81-.6,4.4,4.4,0,0,1,1,.12,4.9,4.9,0,0,1,1,.38l-.4.77a4.22,4.22,0,0,0-.83-.31,3.6,3.6,0,0,0-.88-.1,1.66,1.66,0,0,0-1.07.31A1.06,1.06,0,0,0,74,98a1,1,0,0,0,.36.78,4.39,4.39,0,0,0,1.21.58,4.48,4.48,0,0,1,1.67.92,2,2,0,0,1,.5,1.41,2,2,0,0,1-.68,1.57,2.71,2.71,0,0,1-1.92.63,4.4,4.4,0,0,1-1.28-.18A4,4,0,0,1,72.74,103.2Z"/><path class="cls-5" d="M83.26,103.45a3.35,3.35,0,0,1-.8.37,3,3,0,0,1-.87.12,2.68,2.68,0,0,1-2-.75,2.73,2.73,0,0,1-.76-2.07,3.17,3.17,0,0,1,.77-2.22,2.74,2.74,0,0,1,2.12-.84,3.12,3.12,0,0,1,.82.1,3.32,3.32,0,0,1,.79.33l-.4.7a2.23,2.23,0,0,0-.6-.26,2.59,2.59,0,0,0-.63-.08,1.73,1.73,0,0,0-1.41.61,2.43,2.43,0,0,0-.49,1.56,2.21,2.21,0,0,0,.51,1.57,1.74,1.74,0,0,0,1.32.55,2.3,2.3,0,0,0,.57-.08,2.34,2.34,0,0,0,.6-.29Z"/><path class="cls-5" d="M87.39,99l-.2,0H87a1.23,1.23,0,0,0-1.07.57,2.56,2.56,0,0,0-.39,1.46v2.83h-1V98.19h1V99.3h0a1.83,1.83,0,0,1,.59-.9,1.45,1.45,0,0,1,.91-.31l.29,0,.22,0Z"/><path class="cls-5" d="M89.07,97a.63.63,0,0,1-.47-.19.61.61,0,0,1-.18-.45.62.62,0,0,1,.18-.46.63.63,0,0,1,.47-.19.65.65,0,0,1,.48.19.63.63,0,0,1,.19.46.62.62,0,0,1-.19.45A.65.65,0,0,1,89.07,97Zm.47,6.8h-1V98.19h1Z"/><path class="cls-5" d="M92.43,103h0v3.33h-1V98.19h1v1h0a2.28,2.28,0,0,1,.82-.84,2.23,2.23,0,0,1,1.11-.27,2.07,2.07,0,0,1,1.7.75,3.16,3.16,0,0,1,.61,2,3.48,3.48,0,0,1-.69,2.26,2.3,2.3,0,0,1-1.87.85,1.91,1.91,0,0,1-1-.24A1.93,1.93,0,0,1,92.43,103Zm0-2.25v.75a1.68,1.68,0,0,0,.44,1.17,1.5,1.5,0,0,0,1.14.48,1.46,1.46,0,0,0,1.25-.61,2.85,2.85,0,0,0,.46-1.71,2.26,2.26,0,0,0-.43-1.45,1.38,1.38,0,0,0-1.15-.52,1.56,1.56,0,0,0-1.24.54A2,2,0,0,0,92.4,100.74Z"/><path class="cls-5" d="M100.89,103.73a1.88,1.88,0,0,1-.46.14,2.59,2.59,0,0,1-.51,0,1.43,1.43,0,0,1-1.08-.4,1.63,1.63,0,0,1-.38-1.17V99h-1v-.79h1V96.91l1-.31v1.59h1.41V99H99.41v3.26a1.06,1.06,0,0,0,.18.69.61.61,0,0,0,.51.21,1.55,1.55,0,0,0,.31,0l.26-.09Z"/><rect class="cls-7" width="480" height="150"/></g></g></svg>